<?xml version="1.0" encoding="utf-8"?>
<!-- Generator: Adobe Illustrator 26.0.3, SVG Export Plug-In . SVG Version: 6.00 Build 0)  -->
<svg version="1.1" id="Layer_1" xmlns="http://www.w3.org/2000/svg" xmlns:xlink="http://www.w3.org/1999/xlink" x="0px" y="0px"
	 viewBox="0 0 479.9 233.4" style="enable-background:new 0 0 479.9 233.4;" xml:space="preserve">
<style type="text/css">
	.st0{fill:#8BBF4A;}
</style>
<g>
	<g>
		<path class="st0" d="M29.2,84.8c10.7,3.3,22.2,6.8,22.2,20.7c0,13.5-12.2,19.8-24.4,19.8c-9.9,0-20.7-4.9-27-14.7l11.1-8.8
			c4,7.3,10.5,11.6,16.2,11.8c4.4,0,8.6-2.6,8.6-8c0-4.9-5.9-6.9-11.2-8.5c-9.9-2.9-21.2-7.2-21.2-19.2c0-16.3,15.6-19.1,22.3-19.1
			c9,0,17.1,3.6,22.7,9.1l-9.9,9.4c-3.7-4.2-8.6-6.8-12.8-6.8c-2.2,0-6.8,1.1-6.8,7.3C19.1,81.7,24.2,83.2,29.2,84.8z"/>
		<path class="st0" d="M89.5,58.7c25.4,0,27.5,24,27.5,28.6v6.3H76.1c0,11.8,4.9,19.7,13.8,19.7c2.7,0,8.3,0.4,18.1-12.5l9.7,9.1
			c-12.9,15.9-22.7,15.4-27.8,15.4c-19.5,0-29.3-15.1-29.3-32.6C60.6,74.2,71.9,58.7,89.5,58.7z M78.1,81.4h22.6
			c-1.3-5-4.4-10.7-11.2-10.7C84,70.7,80.4,74.9,78.1,81.4z"/>
		<path class="st0" d="M131.6,124V60h15.7v8.1c6.4-4.8,14.5-9.4,22.9-9.4c12.1,0,17,7.8,17,20.6V124h-15.6V79.3
			c0-17.3-19.5,0.8-24.3,5.2V124L131.6,124L131.6,124z"/>
		<path class="st0" d="M226.7,84.8c10.7,3.3,22.2,6.8,22.2,20.7c0,13.5-12.2,19.8-24.4,19.8c-9.9,0-20.7-4.9-27-14.7l11-8.8
			c4,7.3,10.5,11.6,16.2,11.8c4.4,0,8.6-2.6,8.6-8c0-4.9-5.9-6.9-11.2-8.5c-9.9-2.9-21.2-7.2-21.2-19.2c0-16.3,15.6-19.1,22.3-19.1
			c9,0,17.1,3.6,22.7,9.1l-9.9,9.4c-3.7-4.2-8.6-6.8-12.8-6.8c-2.2,0-6.8,1.1-6.8,7.3C216.6,81.7,221.7,83.2,226.7,84.8z"/>
		<path class="st0" d="M277.5,60v64h-15.6V60H277.5z"/>
		<path class="st0" d="M293.5,124V60h15.7v8.1c6.4-4.8,14.5-9.4,22.9-9.4c12.1,0,17,7.8,17,20.6V124h-15.6V79.3
			c0-17.3-19.5,0.8-24.3,5.2V124L293.5,124L293.5,124z"/>
		<path class="st0" d="M372,97.6c-4.5-3.6-8.3-9.3-8.3-17.9c0-15,16.8-21.2,26.9-21.2c1.9,0,4,0.2,6.2,0.7c4.9-4,11.2-6.2,17.6-6.2
			c2.6,0,6.2,0.8,10,2l-2.2,12c-3.5-1.2-6.2-1.8-7.8-1.8c-1,0-2.4,0.2-3.7,0.5c3.7,3.4,6.8,8.3,6.8,14c0,19.1-16.6,22.9-26.8,22.9
			c-1.8,0-3.7,0-5.5-0.2c-2.2,1.9-4.1,4-4.2,5.7c0.6-0.5,4.5-0.8,7.5-0.7c0.7,0,2,0.1,2.4,0.1c15.7,0.8,34.1,3.8,34.1,19.9
			c0,14.3-10.6,26.5-33.8,26.5c-15.5,0-29.4-9.8-29.4-21.3c0.1-9.4,2.7-12.7,8-16.6c-2.8-1.8-4.4-4-4.4-7.3
			C365.3,104.9,368.1,101.2,372,97.6z M409.4,127.4c0-6-10.5-7.2-19-7.7c-4.4,0-4.8-0.1-6.4-0.1c-3.8,2.4-6.9,5-6.9,13
			c0,5.1,7.2,9.2,14,9.2C403.7,141.8,409.4,135,409.4,127.4z M390.7,91.4c4.3,0,11.3-2,11.3-11.8c0-7.3-7-10.1-11.3-10.1
			c-4.2,0-11.3,2.8-11.3,10.1C379.4,90.3,386.5,91.4,390.7,91.4z"/>
		<path class="st0" d="M273.6,54.1c2.3,1.4,5,2.1,7.7,2.1c8.5,0,15.3-6.9,15.3-15.3c0-0.8-0.1-1.7-0.2-2.5c1.8-3.1,2.8-6.7,2.8-10.3
			c0-8.9-5.8-16.9-14.3-19.5C281.1,1,272-2.1,264.4,1.5c-3.1,1.5-5.6,4-7.1,7.1c-10.8,3.3-16.8,14.8-13.4,25.5
			c0.5,1.5,1.1,2.9,1.9,4.2c-0.1,0.8-0.2,1.6-0.2,2.5c0,8.5,6.9,15.3,15.3,15.3c2.7,0,5.3-0.7,7.7-2.1"/>
	</g>
	<g>
		<path class="st0" d="M216.1,166.9c14.7,0,29.2,9,29.2,33.3c0,24.5-14.5,33.3-29.2,33.3c-14.8,0-29.3-8.1-29.3-33.3
			C186.7,175.7,201.3,166.9,216.1,166.9z M216.1,178.5c-6.8,0-13.6,5.7-13.6,21.6c0,15.7,6.9,21.8,13.6,21.8
			c6.6,0,13.5-5.7,13.5-21.8C229.6,184.8,222.7,178.5,216.1,178.5z"/>
		<path class="st0" d="M273.5,169.4v6.3c1.2-2.3,6.6-7.6,12.7-7.6c11.2,0,18.2,8.1,18.2,8.1l-10.5,10.1c0,0-4.2-5.5-7.3-5.5
			c-4.9,0-9.4,7.1-12.2,13v39.4h-15.7v-64H273.5z"/>
		<path class="st0" d="M335.1,166.9c25.4,0,27.5,24,27.5,28.6v6.3h-40.8c0,11.8,4.9,19.7,13.8,19.7c2.7,0,8.3,0.4,18.2-12.5l9.7,9.1
			c-12.9,15.9-22.7,15.4-27.8,15.4c-19.5,0-29.3-15.1-29.3-32.6C306.2,182.3,317.5,166.9,335.1,166.9z M323.7,189.5h22.6
			c-1.3-5-4.4-10.7-11.2-10.7C329.6,178.8,326,183,323.7,189.5z"/>
		<path class="st0" d="M401.5,192.9c10.7,3.3,22.2,6.8,22.2,20.7c0,13.5-12.2,19.8-24.4,19.8c-9.9,0-20.7-4.9-27-14.7l11-8.8
			c4,7.3,10.5,11.6,16.2,11.8c4.4,0,8.6-2.6,8.6-8c0-4.9-5.9-6.9-11.2-8.5c-9.9-2.9-21.2-7.2-21.2-19.2c0-16.3,15.6-19.1,22.3-19.1
			c9,0,17.1,3.6,22.7,9.1l-9.9,9.4c-3.7-4.2-8.6-6.8-12.8-6.8c-2.2,0-6.8,1-6.8,7.3C391.4,189.8,396.5,191.3,401.5,192.9z"/>
		<path class="st0" d="M461.2,220.8c-2.6-0.8-2.4-4.9-2.4-8.1v-32.8h18.4c2.2,0,3.4-2.4,2.2-4.2l-17.9-25.1h9.2
			c2.2,0,3.4-2.4,2.2-4.2l-16.5-23.2l-2.4-3.7c-1.1-1.5-3.3-1.5-4.3,0l-2.4,3.7l-16.5,23.2c-1.2,1.8,0,4.2,2.2,4.2h9.2l-17.9,25.1
			c-1.2,1.8,0,4.2,2.2,4.2h16.9v32.8c0,12.5,4.1,20.7,15.6,20.7c8,0,14.5-2.3,20.8-9l-9.4-9C466.6,219.1,463.3,221.5,461.2,220.8z"
			/>
		<g>
			<path class="st0" d="M162.3,169.4h17.6v11.8h-17.6v52.2h-15.6v-52.2h-7.8v-11.8h7.8v-10.4c0-12.5,5.2-21.5,20.1-21.5
				c10,0,22.9,8.7,22.9,8.7l-9,9c0,0-9.5-5.9-14-5.9c-4.3,0-4.4,4.3-4.5,9.8L162.3,169.4L162.3,169.4z"/>
		</g>
	</g>
	<g>
		<path class="st0" d="M15.6,170.1h4.8v-14.5h9.8v14.5h9.1v7.4h-9.1v20.8c0,2-0.1,4.6,1.5,5.1c1.3,0.4,3.4-1.1,5.6-3.4l5.9,5.6
			c-3.9,4.2-8.1,5.6-13.1,5.6c-7.2,0-9.8-5.2-9.8-13v-20.8h-4.8L15.6,170.1L15.6,170.1z"/>
		<path class="st0" d="M48,210.5v-60h9.9v24.4c4-3,9.1-5.4,14.4-5.4c7.6,0,10.7,4.9,10.7,13v28.1h-9.8v-28.1
			c0-10.7-12.8,0.7-15.3,3.3v24.8H48z"/>
		<path class="st0" d="M108.7,169.4c16,0,17.3,15.1,17.3,18v4h-25.7c0,7.4,3.1,12.4,8.7,12.4c1.7,0,5.2,0.2,11.4-7.8l6.1,5.7
			c-8.1,10-14.3,9.7-17.5,9.7c-12.3,0-18.4-9.5-18.4-20.5C90.6,179.1,97.7,169.4,108.7,169.4z M101.5,183.7h14.2
			c-0.8-3.1-2.8-6.7-7-6.7C105.3,176.9,103,179.6,101.5,183.7z"/>
	</g>
</g>
</svg>
