<?xml version="1.0" encoding="utf-8"?>
<!-- Generator: Adobe Illustrator 26.0.3, SVG Export Plug-In . SVG Version: 6.00 Build 0)  -->
<svg version="1.1" id="Layer_1" xmlns="http://www.w3.org/2000/svg" xmlns:xlink="http://www.w3.org/1999/xlink" x="0px" y="0px"
	 viewBox="0 0 888.72 153.89" style="enable-background:new 0 0 888.72 153.89;" xml:space="preserve">
<style type="text/css">
	.st0{fill:#8CC04B;}
	.st1{fill:#1D1E1B;}
</style>
<g>
	<g>
		<path class="st0" d="M29.2,84.79c10.7,3.26,22.22,6.75,22.22,20.71c0,13.49-12.21,19.78-24.43,19.78
			c-9.89,0-20.71-4.89-26.99-14.66l11.05-8.84c3.96,7.33,10.47,11.63,16.17,11.75c4.42,0,8.61-2.56,8.61-8.03
			c0-4.89-5.93-6.86-11.17-8.49C14.77,94.1,3.49,89.79,3.49,77.81c0-16.29,15.59-19.08,22.34-19.08c8.96,0,17.1,3.61,22.69,9.07
			l-9.89,9.42c-3.72-4.19-8.61-6.75-12.8-6.75c-2.21,0-6.75,1.05-6.75,7.33C19.08,81.65,24.2,83.16,29.2,84.79z"/>
		<path class="st0" d="M89.46,58.73c25.36,0,27.45,23.96,27.45,28.62v6.28H76.08c0,11.75,4.89,19.66,13.84,19.66
			c2.68,0,8.26,0.35,18.15-12.45l9.66,9.07c-12.91,15.94-22.69,15.36-27.8,15.36c-19.54,0-29.32-15.12-29.32-32.57
			C60.61,74.21,71.9,58.73,89.46,58.73z M78.06,81.42h22.57c-1.28-5-4.42-10.7-11.17-10.7C83.99,70.72,80.39,74.9,78.06,81.42z"/>
		<path class="st0" d="M131.58,124V60.01h15.71v8.14c6.4-4.77,14.54-9.42,22.92-9.42c12.1,0,16.99,7.79,16.99,20.59V124h-15.59
			V79.32c0-17.33-19.54,0.81-24.31,5.23V124H131.58z"/>
		<path class="st0" d="M226.74,84.79c10.7,3.26,22.22,6.75,22.22,20.71c0,13.49-12.21,19.78-24.43,19.78
			c-9.89,0-20.71-4.89-26.99-14.66l11.05-8.84c3.96,7.33,10.47,11.63,16.17,11.75c4.42,0,8.61-2.56,8.61-8.03
			c0-4.89-5.93-6.86-11.17-8.49c-9.89-2.91-21.17-7.21-21.17-19.19c0-16.29,15.59-19.08,22.34-19.08c8.96,0,17.1,3.61,22.69,9.07
			l-9.89,9.42c-3.72-4.19-8.61-6.75-12.8-6.75c-2.21,0-6.75,1.05-6.75,7.33C216.62,81.65,221.74,83.16,226.74,84.79z"/>
		<path class="st0" d="M277.46,60.01V124h-15.59V60.01H277.46z"/>
		<path class="st0" d="M293.52,124V60.01h15.71v8.14c6.4-4.77,14.54-9.42,22.92-9.42c12.1,0,16.99,7.79,16.99,20.59V124h-15.59
			V79.32c0-17.33-19.54,0.81-24.31,5.23V124H293.52z"/>
		<path class="st0" d="M372.04,97.59c-4.54-3.61-8.26-9.31-8.26-17.92c0-15.01,16.75-21.17,26.87-21.17c1.86,0,3.96,0.23,6.17,0.7
			c4.89-3.96,11.17-6.17,17.57-6.17c2.56,0,6.17,0.81,10,1.98l-2.21,11.98c-3.49-1.16-6.17-1.75-7.79-1.75
			c-1.05,0-2.44,0.23-3.72,0.47c3.72,3.37,6.75,8.26,6.75,13.96c0,19.08-16.64,22.92-26.76,22.92c-1.75,0-3.72,0-5.47-0.23
			c-2.21,1.86-4.07,3.96-4.19,5.7c0.58-0.47,4.54-0.81,7.45-0.7c0.7,0,1.98,0.12,2.44,0.12c15.71,0.81,34.09,3.84,34.09,19.89
			c0,14.31-10.59,26.52-33.85,26.52c-15.47,0-29.43-9.77-29.43-21.29c0.12-9.42,2.68-12.68,8.03-16.64
			c-2.79-1.75-4.42-3.96-4.42-7.33C365.3,104.92,368.09,101.19,372.04,97.59z M409.39,127.37c0-6.05-10.47-7.21-18.96-7.68
			c-4.42,0-4.77-0.12-6.4-0.12c-3.84,2.44-6.86,5-6.86,13.03c0,5.12,7.21,9.19,13.96,9.19
			C403.69,141.79,409.39,135.05,409.39,127.37z M390.66,91.42c4.3,0,11.28-1.98,11.28-11.75c0-7.33-6.98-10.12-11.28-10.12
			c-4.19,0-11.28,2.79-11.28,10.12C379.37,90.26,386.47,91.42,390.66,91.42z"/>
		<path class="st1" d="M273.62,54.08c2.32,1.37,4.97,2.1,7.66,2.1c8.46-0.01,15.31-6.86,15.32-15.32c0-0.83-0.08-1.67-0.23-2.49
			c1.82-3.12,2.78-6.67,2.78-10.28c0.02-8.94-5.8-16.85-14.35-19.49c-3.68-7.59-12.82-10.75-20.41-7.07
			c-3.08,1.5-5.57,3.98-7.07,7.07c-10.76,3.34-16.77,14.78-13.43,25.54c0.46,1.48,1.08,2.89,1.86,4.23
			c-0.15,0.82-0.22,1.65-0.23,2.49c0.01,8.46,6.86,15.31,15.32,15.32c2.7,0,5.34-0.73,7.66-2.1"/>
	</g>
	<g>
		<path class="st0" d="M624.9,58.93c14.66,0,29.2,8.96,29.2,33.27c0,24.55-14.54,33.27-29.2,33.27c-14.77,0-29.32-8.14-29.32-33.27
			C595.59,67.77,610.13,58.93,624.9,58.93z M624.9,70.56c-6.75,0-13.61,5.7-13.61,21.64c0,15.71,6.86,21.75,13.61,21.75
			c6.63,0,13.49-5.7,13.49-21.75C638.4,76.84,631.53,70.56,624.9,70.56z"/>
		<path class="st0" d="M682.37,60.21v6.28c1.16-2.33,6.63-7.56,12.68-7.56c11.17,0,18.15,8.14,18.15,8.14l-10.47,10.12
			c0,0-4.19-5.47-7.33-5.47c-4.89,0-9.42,7.1-12.21,13.03v39.44h-15.71V60.21H682.37z"/>
		<path class="st0" d="M743.92,58.93c25.36,0,27.46,23.96,27.46,28.62v6.28h-40.83c0,11.75,4.89,19.66,13.84,19.66
			c2.68,0,8.26,0.35,18.15-12.45l9.66,9.07c-12.91,15.94-22.69,15.36-27.8,15.36c-19.54,0-29.32-15.12-29.32-32.57
			C715.07,74.4,726.35,58.93,743.92,58.93z M732.52,81.61h22.57c-1.28-5-4.42-10.7-11.17-10.7
			C738.45,70.91,734.84,75.1,732.52,81.61z"/>
		<path class="st0" d="M810.34,84.99c10.7,3.26,22.22,6.75,22.22,20.71c0,13.5-12.21,19.78-24.43,19.78
			c-9.89,0-20.71-4.89-26.99-14.66l11.05-8.84c3.96,7.33,10.47,11.63,16.17,11.75c4.42,0,8.61-2.56,8.61-8.03
			c0-4.89-5.93-6.86-11.17-8.49c-9.89-2.91-21.17-7.21-21.17-19.2c0-16.29,15.59-19.08,22.34-19.08c8.96,0,17.1,3.61,22.69,9.07
			l-9.89,9.42c-3.72-4.19-8.61-6.75-12.8-6.75c-2.21,0-6.75,1.05-6.75,7.33C800.22,81.85,805.34,83.36,810.34,84.99z"/>
		<path class="st1" d="M870.07,112.91c-2.56-0.81-2.44-4.89-2.44-8.14V71.96h18.42c2.16,0,3.42-2.44,2.17-4.21l-17.89-25.13h9.21
			c2.16,0,3.42-2.44,2.17-4.21l-16.53-23.21l-2.42-3.67c-1.06-1.49-3.27-1.49-4.34,0l-2.42,3.67l-16.53,23.21
			c-1.25,1.76,0.01,4.21,2.17,4.21h9.21l-17.89,25.13c-1.25,1.76,0.01,4.21,2.17,4.21h16.93v32.81c0,12.45,4.07,20.71,15.59,20.71
			c8.03,0,14.54-2.33,20.82-8.96l-9.42-8.96C875.42,111.16,872.16,113.61,870.07,112.91z"/>
		<g>
			<path class="st0" d="M571.15,60.31h17.57v11.75h-17.57v52.23h-15.59V72.06h-7.79V60.31h7.79V49.96
				c0-12.45,5.23-21.52,20.13-21.52c10,0,22.92,8.73,22.92,8.73l-8.96,8.96c0,0-9.54-5.93-13.96-5.93c-4.3,0-4.42,4.3-4.54,9.77
				V60.31z"/>
		</g>
	</g>
	<g>
		<path class="st1" d="M431.59,73.84h4.83V59.35h9.8v14.49h9.07v7.39h-9.07v20.78c0,2.05-0.07,4.61,1.54,5.12
			c1.32,0.44,3.37-1.1,5.63-3.37l5.93,5.63c-3.95,4.17-8.05,5.63-13.1,5.63c-7.24,0-9.8-5.2-9.8-13.02V81.23h-4.83V73.84z"/>
		<path class="st1" d="M464.01,114.23v-60h9.88v24.37c4.02-3,9.15-5.41,14.41-5.41c7.61,0,10.68,4.9,10.68,12.95v28.1h-9.8v-28.1
			c0-10.68-12.8,0.66-15.29,3.29v24.8H464.01z"/>
		<path class="st1" d="M524.67,73.18c15.95,0,17.27,15.07,17.27,18v3.95h-25.68c0,7.39,3.07,12.37,8.71,12.37
			c1.68,0,5.19,0.22,11.41-7.83l6.07,5.71c-8.12,10.02-14.27,9.66-17.49,9.66c-12.29,0-18.44-9.51-18.44-20.49
			C506.52,82.91,513.62,73.18,524.67,73.18z M517.49,87.45h14.2c-0.8-3.15-2.78-6.73-7.02-6.73
			C521.23,80.72,518.96,83.35,517.49,87.45z"/>
	</g>
</g>
</svg>
