<?xml version="1.0" encoding="UTF-8"?>
<svg id="Layer_1" data-name="Layer 1" xmlns="http://www.w3.org/2000/svg" version="1.1" viewBox="0 0 888.7 153.9">
  <defs>
    <style>
      .cls-1 {
        fill: #1d1e1b;
        stroke-width: 0px;
      }
    </style>
  </defs>
  <g>
    <path class="cls-1" d="M29.2,84.8c10.7,3.3,22.2,6.8,22.2,20.7s-12.2,19.8-24.4,19.8S6.3,120.4,0,110.6l11.1-8.8c4,7.3,10.5,11.6,16.2,11.8,4.4,0,8.6-2.6,8.6-8s-5.9-6.9-11.2-8.5c-9.9-2.9-21.2-7.2-21.2-19.2s15.6-19.1,22.3-19.1,17.1,3.6,22.7,9.1l-9.9,9.4c-3.7-4.2-8.6-6.8-12.8-6.8s-6.8,1.1-6.8,7.3c0,3.9,5.1,5.4,10.1,7Z"/>
    <path class="cls-1" d="M89.5,58.7c25.4,0,27.5,24,27.5,28.6v6.3h-40.8c0,11.8,4.9,19.7,13.8,19.7s8.3.3,18.2-12.4l9.7,9.1c-12.9,15.9-22.7,15.4-27.8,15.4-19.5,0-29.3-15.1-29.3-32.6,0-18.5,11.3-34,28.9-34ZM78.1,81.4h22.6c-1.3-5-4.4-10.7-11.2-10.7s-9.1,4.2-11.4,10.7Z"/>
    <path class="cls-1" d="M131.6,124v-64h15.7v8.1c6.4-4.8,14.5-9.4,22.9-9.4,12.1,0,17,7.8,17,20.6v44.7h-15.6v-44.7c0-17.3-19.5.8-24.3,5.2v39.4h-15.7Z"/>
    <path class="cls-1" d="M226.7,84.8c10.7,3.3,22.2,6.8,22.2,20.7s-12.2,19.8-24.4,19.8-20.7-4.9-27-14.7l11.1-8.8c4,7.3,10.5,11.6,16.2,11.8,4.4,0,8.6-2.6,8.6-8s-5.9-6.9-11.2-8.5c-9.9-2.9-21.2-7.2-21.2-19.2s15.6-19.1,22.3-19.1,17.1,3.6,22.7,9.1l-9.9,9.4c-3.7-4.2-8.6-6.8-12.8-6.8s-6.8,1.1-6.8,7.3,5.1,5.4,10.1,7Z"/>
    <path class="cls-1" d="M277.5,60v64h-15.6v-64h15.6Z"/>
    <path class="cls-1" d="M293.5,124v-64h15.7v8.1c6.4-4.8,14.5-9.4,22.9-9.4,12.1,0,17,7.8,17,20.6v44.7h-15.6v-44.7c0-17.3-19.5.8-24.3,5.2v39.4h-15.7Z"/>
    <path class="cls-1" d="M372,97.6c-4.5-3.6-8.3-9.3-8.3-17.9,0-15,16.8-21.2,26.9-21.2s4,.2,6.2.7c4.9-4,11.2-6.2,17.6-6.2s6.2.8,10,2l-2.2,12c-3.5-1.2-6.2-1.8-7.8-1.8s-2.4.2-3.7.5c3.7,3.4,6.8,8.3,6.8,14,0,19.1-16.6,22.9-26.8,22.9s-3.7,0-5.5-.2c-2.2,1.9-4.1,4-4.2,5.7.6-.5,4.5-.8,7.5-.7.7,0,2,.1,2.4.1,15.7.8,34.1,3.8,34.1,19.9s-10.6,26.5-33.9,26.5-29.4-9.8-29.4-21.3c.1-9.4,2.7-12.7,8-16.6-2.8-1.8-4.4-4-4.4-7.3,0-3.7,2.8-7.4,6.7-11ZM409.4,127.4c0-6.1-10.5-7.2-19-7.7-4.4,0-4.8-.1-6.4-.1-3.8,2.4-6.9,5-6.9,13s7.2,9.2,14,9.2c12.6,0,18.3-6.7,18.3-14.4ZM390.7,91.4c4.3,0,11.3-2,11.3-11.8s-7-10.1-11.3-10.1-11.3,2.8-11.3,10.1c0,10.6,7.1,11.8,11.3,11.8Z"/>
    <path class="cls-1" d="M273.6,54.1c2.3,1.4,5,2.1,7.7,2.1,8.5,0,15.3-6.9,15.3-15.3,0-.8,0-1.7-.2-2.5,1.8-3.1,2.8-6.7,2.8-10.3,0-8.9-5.8-16.9-14.4-19.5-3.7-7.6-12.8-10.8-20.4-7.1-3.1,1.5-5.6,4-7.1,7.1-10.8,3.3-16.8,14.8-13.4,25.5.5,1.5,1.1,2.9,1.9,4.2-.1.8-.2,1.7-.2,2.5,0,8.5,6.9,15.3,15.3,15.3,2.7,0,5.3-.7,7.7-2.1"/>
  </g>
  <g>
    <path class="cls-1" d="M624.9,58.9c14.7,0,29.2,9,29.2,33.3s-14.5,33.3-29.2,33.3-29.3-8.1-29.3-33.3c0-24.4,14.5-33.3,29.3-33.3ZM624.9,70.6c-6.8,0-13.6,5.7-13.6,21.6s6.9,21.8,13.6,21.8,13.5-5.7,13.5-21.8c0-15.4-6.9-21.6-13.5-21.6Z"/>
    <path class="cls-1" d="M682.4,60.2v6.3c1.2-2.3,6.6-7.6,12.7-7.6,11.2,0,18.2,8.1,18.2,8.1l-10.5,10.1s-4.2-5.5-7.3-5.5c-4.9,0-9.4,7.1-12.2,13v39.4h-15.7v-64h14.9Z"/>
    <path class="cls-1" d="M743.9,58.9c25.4,0,27.5,24,27.5,28.6v6.3h-40.8c0,11.8,4.9,19.7,13.8,19.7s8.3.3,18.2-12.4l9.7,9.1c-12.9,15.9-22.7,15.4-27.8,15.4-19.5,0-29.3-15.1-29.3-32.6,0-18.5,11.3-34,28.8-34ZM732.5,81.6h22.6c-1.3-5-4.4-10.7-11.2-10.7s-9.1,4.2-11.4,10.7Z"/>
    <path class="cls-1" d="M810.3,85c10.7,3.3,22.2,6.8,22.2,20.7s-12.2,19.8-24.4,19.8-20.7-4.9-27-14.7l11-8.8c4,7.3,10.5,11.6,16.2,11.8,4.4,0,8.6-2.6,8.6-8s-5.9-6.9-11.2-8.5c-9.9-2.9-21.2-7.2-21.2-19.2s15.6-19.1,22.3-19.1,17.1,3.6,22.7,9.1l-9.9,9.4c-3.7-4.2-8.6-6.8-12.8-6.8s-6.8,1.1-6.8,7.3c0,3.9,5.1,5.4,10.1,7Z"/>
    <path class="cls-1" d="M870.1,112.9c-2.6-.8-2.4-4.9-2.4-8.1v-32.8h18.4c2.2,0,3.4-2.4,2.2-4.2l-17.9-25.1h9.2c2.2,0,3.4-2.4,2.2-4.2l-16.5-23.2-2.4-3.7c-1.1-1.5-3.3-1.5-4.3,0l-2.4,3.7-16.5,23.2c-1.2,1.8,0,4.2,2.2,4.2h9.2l-17.9,25.1c-1.2,1.8,0,4.2,2.2,4.2h16.9v32.8c0,12.4,4.1,20.7,15.6,20.7s14.5-2.3,20.8-9l-9.4-9c-3.6,3.6-6.9,6-9,5.3Z"/>
    <path class="cls-1" d="M571.2,60.3h17.6v11.7h-17.6v52.2h-15.6v-52.2h-7.8v-11.7h7.8v-10.4c0-12.5,5.2-21.5,20.1-21.5s22.9,8.7,22.9,8.7l-9,9s-9.5-5.9-14-5.9-4.4,4.3-4.5,9.8v10.3h0Z"/>
  </g>
  <g>
    <path class="cls-1" d="M431.6,73.8h4.8v-14.5h9.8v14.5h9.1v7.4h-9.1v20.8c0,2.1,0,4.6,1.5,5.1,1.3.4,3.4-1.1,5.6-3.4l5.9,5.6c-4,4.2-8,5.6-13.1,5.6-7.2,0-9.8-5.2-9.8-13v-20.8h-4.8v-7.4Z"/>
    <path class="cls-1" d="M464,114.2v-60h9.9v24.4c4-3,9.1-5.4,14.4-5.4,7.6,0,10.7,4.9,10.7,12.9v28.1h-9.8v-28.1c0-10.7-12.8.7-15.3,3.3v24.8s-9.9,0-9.9,0Z"/>
    <path class="cls-1" d="M524.7,73.2c16,0,17.3,15.1,17.3,18v3.9h-25.7c0,7.4,3.1,12.4,8.7,12.4s5.2.2,11.4-7.8l6.1,5.7c-8.1,10-14.3,9.7-17.5,9.7-12.3,0-18.4-9.5-18.4-20.5,0-11.6,7.1-21.4,18.1-21.4ZM517.5,87.4h14.2c-.8-3.2-2.8-6.7-7-6.7-3.4,0-5.7,2.6-7.2,6.7Z"/>
  </g>
</svg>