<?xml version="1.0" encoding="utf-8"?>
<!-- Generator: Adobe Illustrator 26.0.3, SVG Export Plug-In . SVG Version: 6.00 Build 0)  -->
<svg version="1.1" id="Layer_1" xmlns="http://www.w3.org/2000/svg" xmlns:xlink="http://www.w3.org/1999/xlink" x="0px" y="0px"
	 viewBox="0 0 1000 102" style="enable-background:new 0 0 1000 102;" xml:space="preserve">
<g>
	<path d="M23.49,45.39c8.62,2.62,17.9,5.44,17.9,16.68c0,10.87-9.84,15.93-19.68,15.93c-7.97,0-16.68-3.94-21.74-11.81l8.9-7.12
		c3.19,5.9,8.43,9.37,13.03,9.47c3.56,0,6.94-2.06,6.94-6.47c0-3.94-4.78-5.53-9-6.84c-7.97-2.34-17.06-5.81-17.06-15.46
		c0-13.12,12.56-15.37,17.99-15.37c7.22,0,13.78,2.91,18.28,7.31l-7.97,7.59c-3-3.37-6.94-5.44-10.31-5.44
		c-1.78,0-5.44,0.84-5.44,5.9C15.34,42.86,19.46,44.08,23.49,45.39z"/>
	<path d="M72.04,24.4c20.43,0,22.12,19.31,22.12,23.06v5.06h-32.9c0,9.47,3.94,15.84,11.15,15.84c2.16,0,6.65,0.28,14.62-10.03
		l7.78,7.31c-10.4,12.84-18.28,12.37-22.4,12.37c-15.74,0-23.62-12.18-23.62-26.24C48.79,36.87,57.88,24.4,72.04,24.4z M62.85,42.68
		h18.18c-1.03-4.03-3.56-8.62-9-8.62C67.63,34.05,64.73,37.43,62.85,42.68z"/>
	<path d="M105.96,76.98V25.43h12.65v6.56c5.15-3.84,11.71-7.59,18.46-7.59c9.75,0,13.68,6.28,13.68,16.59v35.99H138.2V40.99
		c0-13.96-15.75,0.66-19.59,4.22v31.77H105.96z"/>
	<path d="M182.62,45.39c8.62,2.62,17.9,5.44,17.9,16.68c0,10.87-9.84,15.93-19.68,15.93c-7.97,0-16.68-3.94-21.74-11.81l8.9-7.12
		c3.19,5.9,8.43,9.37,13.03,9.47c3.56,0,6.94-2.06,6.94-6.47c0-3.94-4.78-5.53-9-6.84c-7.97-2.34-17.06-5.81-17.06-15.46
		c0-13.12,12.56-15.37,17.99-15.37c7.22,0,13.78,2.91,18.28,7.31l-7.97,7.59c-3-3.37-6.94-5.44-10.31-5.44
		c-1.78,0-5.44,0.84-5.44,5.9C174.47,42.86,178.59,44.08,182.62,45.39z"/>
	<path d="M217.3,4.81c4.03,0,7.03,2.62,7.03,6.19s-3,6.19-7.03,6.19c-4.12,0-7.22-2.62-7.22-6.19S213.17,4.81,217.3,4.81z
		 M223.48,25.43v51.55h-12.56V25.43H223.48z"/>
	<path d="M236.41,76.98V25.43h12.65v6.56c5.15-3.84,11.71-7.59,18.46-7.59c9.75,0,13.68,6.28,13.68,16.59v35.99h-12.56V40.99
		c0-13.96-15.75,0.66-19.59,4.22v31.77H236.41z"/>
	<path d="M299.67,55.7c-3.66-2.91-6.65-7.5-6.65-14.43c0-12.09,13.5-17.06,21.65-17.06c1.5,0,3.19,0.19,4.97,0.56
		c3.94-3.19,9-4.97,14.15-4.97c2.06,0,4.97,0.66,8.06,1.59l-1.78,9.65c-2.81-0.94-4.97-1.41-6.28-1.41c-0.84,0-1.97,0.19-3,0.37
		c3,2.72,5.44,6.65,5.44,11.25c0,15.37-13.4,18.46-21.56,18.46c-1.41,0-3,0-4.4-0.19c-1.78,1.5-3.28,3.19-3.37,4.59
		c0.47-0.38,3.66-0.66,6-0.56c0.56,0,1.59,0.09,1.97,0.09c12.65,0.66,27.46,3.09,27.46,16.03c0,11.53-8.53,21.37-27.27,21.37
		c-12.46,0-23.71-7.87-23.71-17.15c0.09-7.59,2.16-10.22,6.47-13.4c-2.25-1.41-3.56-3.19-3.56-5.9
		C294.24,61.61,296.48,58.61,299.67,55.7z M329.75,79.7c0-4.87-8.43-5.81-15.28-6.19c-3.56,0-3.84-0.09-5.15-0.09
		c-3.09,1.97-5.53,4.03-5.53,10.5c0,4.12,5.81,7.4,11.25,7.4C325.16,91.32,329.75,85.88,329.75,79.7z M314.67,50.74
		c3.47,0,9.09-1.59,9.09-9.47c0-5.9-5.62-8.15-9.09-8.15c-3.37,0-9.09,2.25-9.09,8.15C305.58,49.8,311.29,50.74,314.67,50.74z"/>
	<path d="M372.02,25.24h6.19V6.69h12.56v18.56h11.62v9.47h-11.62v26.62c0,2.62-0.09,5.9,1.97,6.56c1.69,0.56,4.31-1.41,7.22-4.31
		l7.59,7.22c-5.06,5.34-10.31,7.22-16.78,7.22c-9.28,0-12.56-6.65-12.56-16.68V34.71h-6.19V25.24z"/>
	<path d="M413.54,76.98V0.13h12.65v31.21c5.15-3.84,11.71-6.94,18.46-6.94c9.75,0,13.68,6.28,13.68,16.59v35.99h-12.56V40.99
		c0-13.68-16.4,0.84-19.59,4.22v31.77H413.54z"/>
	<path d="M491.23,24.4c20.43,0,22.12,19.31,22.12,23.06v5.06h-32.9c0,9.47,3.94,15.84,11.15,15.84c2.16,0,6.65,0.28,14.62-10.03
		l7.78,7.31c-10.4,12.84-18.28,12.37-22.4,12.37c-15.74,0-23.62-12.18-23.62-26.24C467.99,36.87,477.08,24.4,491.23,24.4z
		 M482.04,42.68h18.18c-1.03-4.03-3.56-8.62-9-8.62C486.82,34.05,483.92,37.43,482.04,42.68z"/>
	<path d="M563.58,25.43h14.15v9.47h-14.15v42.08h-12.56V34.9h-6.28v-9.47h6.28v-8.34c0-10.03,4.22-17.34,16.21-17.34
		c8.06,0,18.46,7.03,18.46,7.03L578.48,14c0,0-7.68-4.78-11.25-4.78c-3.47,0-3.56,3.47-3.66,7.87V25.43z"/>
	<path d="M606.87,24.4c11.81,0,23.52,7.22,23.52,26.8c0,19.77-11.71,26.8-23.52,26.8c-11.9,0-23.62-6.56-23.62-26.8
		C583.26,31.52,594.97,24.4,606.87,24.4z M606.87,33.77c-5.44,0-10.96,4.59-10.96,17.43c0,12.65,5.53,17.53,10.96,17.53
		c5.34,0,10.87-4.59,10.87-17.53C617.75,38.83,612.22,33.77,606.87,33.77z"/>
	<path d="M653.17,25.43v5.06c0.94-1.87,5.34-6.09,10.22-6.09c9,0,14.62,6.56,14.62,6.56l-8.43,8.15c0,0-3.37-4.4-5.9-4.4
		c-3.94,0-7.59,5.72-9.84,10.5v31.77h-12.65V25.43H653.17z"/>
	<path d="M702.75,24.4c20.43,0,22.12,19.31,22.12,23.06v5.06h-32.9c0,9.47,3.94,15.84,11.15,15.84c2.16,0,6.65,0.28,14.62-10.03
		l7.78,7.31c-10.4,12.84-18.28,12.37-22.4,12.37c-15.75,0-23.62-12.18-23.62-26.24C679.5,36.87,688.59,24.4,702.75,24.4z
		 M693.56,42.68h18.18c-1.03-4.03-3.56-8.62-9-8.62C698.34,34.05,695.44,37.43,693.56,42.68z"/>
	<path d="M756.26,45.39c8.62,2.62,17.9,5.44,17.9,16.68c0,10.87-9.84,15.93-19.68,15.93c-7.97,0-16.68-3.94-21.74-11.81l8.9-7.12
		c3.19,5.9,8.44,9.37,13.03,9.47c3.56,0,6.94-2.06,6.94-6.47c0-3.94-4.78-5.53-9-6.84c-7.97-2.34-17.06-5.81-17.06-15.46
		c0-13.12,12.56-15.37,17.99-15.37c7.22,0,13.78,2.91,18.28,7.31l-7.97,7.59c-3-3.37-6.94-5.44-10.31-5.44
		c-1.78,0-5.44,0.84-5.44,5.9C748.1,42.86,752.23,44.08,756.26,45.39z"/>
	<path d="M780.43,25.24h6.19V6.69h12.56v18.56h11.62v9.47h-11.62v26.62c0,2.62-0.09,5.9,1.97,6.56c1.69,0.56,4.31-1.41,7.22-4.31
		l7.59,7.22c-5.06,5.34-10.31,7.22-16.78,7.22c-9.28,0-12.56-6.65-12.56-16.68V34.71h-6.19V25.24z"/>
</g>
<g>
	<path d="M935.47,49.42c3.9,0,7.38,1.59,9.92,4.13c2.36,2.3,3.84,5.43,4.07,8.86c2.72,0.83,5.08,2.48,6.79,4.61
		c2.01,2.42,3.19,5.49,3.19,8.86c0,3.9-1.59,7.38-4.13,9.92c-2.54,2.54-6.02,4.13-9.92,4.13h-8.27v9.74h4.55
		c0.89,0,1.65,0.77,1.65,1.65c0,0.94-0.77,1.65-1.65,1.65h-12.4c-0.89,0-1.65-0.71-1.65-1.65c0-0.89,0.77-1.65,1.65-1.65h4.55v-9.74
		h-8.27c-3.9,0-7.38-1.59-9.92-4.13c-2.54-2.54-4.13-6.02-4.13-9.92c0-3.37,1.18-6.44,3.19-8.86c1.71-2.13,4.07-3.78,6.79-4.61
		c0.24-3.42,1.77-6.55,4.07-8.86C928.09,51.02,931.58,49.42,935.47,49.42z M937.13,89.93v-8.97l6.26-3.6
		c0.83-0.47,1.06-1.48,0.59-2.24c-0.41-0.83-1.42-1.06-2.24-0.65l-5.96,3.48l-4.9-4.9c-0.65-0.65-1.71-0.65-2.36,0
		c-0.65,0.65-0.65,1.71,0,2.36l5.31,5.31v9.21C933.82,89.93,937.13,89.93,937.13,89.93z"/>
</g>
<path d="M879.85,71.34L868.7,55.68h5.74c1.35,0,2.13-1.52,1.35-2.62l-10.3-14.46h4.89c1.35,0,2.13-1.52,1.35-2.62l-7.75-10.88
	c-0.66-0.93-2.04-0.93-2.7,0l-7.75,10.88c-0.78,1.1,0,2.62,1.35,2.62h4.89l-10.3,14.46c-0.78,1.1,0,2.62,1.35,2.62h5.74
	l-11.15,15.65c-0.78,1.1,0,2.62,1.35,2.62h12.15V90.4c0,0.92,0.74,1.66,1.66,1.66h4.13c0.92,0,1.66-0.74,1.66-1.66V73.96h12.15
	C879.85,73.96,880.63,72.43,879.85,71.34z"/>
<path d="M989.25,19.06c0.45-1,0.72-2.1,0.72-3.27c0-4.34-3.5-7.86-7.83-7.89c-0.84-3.46-3.95-6.02-7.66-6.02
	c-1.52,0-2.93,0.44-4.14,1.18C968.89,1.2,966.64,0,964.11,0c-3.95,0-7.2,2.9-7.79,6.68c-0.33-0.04-0.65-0.07-0.99-0.07
	c-4.36,0-7.89,3.53-7.89,7.89c0,0.09,0.01,0.18,0.01,0.27c-2.37,1.36-3.96,3.91-3.96,6.84c0,2.42,1.09,4.59,2.81,6.04
	c-0.03,0.29-0.05,0.57-0.05,0.87c0,4.36,3.53,7.89,7.89,7.89c1.55,0,2.98-0.47,4.2-1.24c1.76,1.76,3.91,1.15,4.54,3.46
	c2.55,9.3-1.48,14.75-1.48,14.75h9.52c0,0-4.54-10.8-0.84-13.27c0.93-0.62,1.9-1.57,2.79-2.61c1.29,0.92,2.86,1.47,4.56,1.47
	c4.33,0,7.84-3.48,7.89-7.8c3.15-1.04,5.43-4,5.43-7.5C990.75,21.95,990.19,20.36,989.25,19.06z M962.33,35.23
	c-1.17-0.34-2.09-0.67-2.81-0.97c1.07-1,1.87-2.28,2.25-3.73c0.85,0.76,1.82,1.38,2.87,1.85C965.06,34.27,964.84,35.96,962.33,35.23
	z M966.33,35.57c0.04-1.01,0-1.87-0.1-2.62c0.81,0.22,1.66,0.35,2.54,0.38C967.58,36.51,966.15,39.65,966.33,35.57z M968.2,38.28
	c1.13-1.27,1.76-2.6,2.09-3.84c0.31,0.65,0.71,1.24,1.18,1.78C969.72,37.4,968.2,38.28,968.2,38.28z"/>
<path d="M908.4,4.07l12.4,17.41c0.94,1.32,0,3.15-1.62,3.15h-6.91l13.42,18.84c0.94,1.32,0,3.15-1.62,3.15h-14.62v19.8
	c0,1.1-0.89,2-1.99,2h-4.97c-1.1,0-1.99-0.89-1.99-2v-19.8h-14.62c-1.62,0-2.57-1.83-1.62-3.15l13.42-18.84h-6.91
	c-1.62,0-2.57-1.83-1.62-3.15l12.4-17.41l1.82-2.75c0.8-1.12,2.46-1.12,3.25,0"/>
<g>
	<path d="M984.33,81.19l0.02,19.22c0,0.79,0.64,1.43,1.43,1.43l3.56,0c0.79,0,1.43-0.64,1.43-1.43l-0.02-19.22"/>
	<path d="M976.65,81.35c-0.51,0-0.93-0.74-0.93-1.65c0-0.34,0.06-0.68,0.17-0.96L981.33,65l5.43-13.74c0.3-0.75,0.87-0.92,1.29-0.39
		c0.09,0.11,0.16,0.24,0.22,0.39l10.92,27.46c0.3,0.74,0.2,1.78-0.22,2.31c-0.16,0.2-0.34,0.31-0.54,0.31v0"/>
</g>
</svg>
