<?xml version="1.0" encoding="utf-8"?>
<!-- Generator: Adobe Illustrator 26.0.3, SVG Export Plug-In . SVG Version: 6.00 Build 0)  -->
<svg version="1.1" id="Layer_1" xmlns="http://www.w3.org/2000/svg" xmlns:xlink="http://www.w3.org/1999/xlink" x="0px" y="0px"
	 viewBox="0 0 1000 173.28" style="enable-background:new 0 0 1000 173.28;" xml:space="preserve">
<style type="text/css">
	.st0{fill:#8BBF4B;}
	.st1{fill:#1D1D1B;}
</style>
<g>
	<g>
		<path class="st0" d="M32.86,95.41c12.04,3.67,25,7.59,25,23.3c0,15.18-13.74,22.25-27.49,22.25c-11.13,0-23.3-5.5-30.37-16.49
			l12.44-9.95c4.45,8.25,11.78,13.09,18.2,13.22c4.97,0,9.69-2.88,9.69-9.03c0-5.5-6.68-7.72-12.57-9.56
			c-11.13-3.27-23.82-8.12-23.82-21.6c0-18.33,17.54-21.47,25.13-21.47c10.08,0,19.24,4.06,25.53,10.21L43.46,86.9
			c-4.19-4.71-9.69-7.59-14.4-7.59c-2.49,0-7.59,1.18-7.59,8.25C21.47,91.88,27.23,93.58,32.86,95.41z"/>
		<path class="st0" d="M100.66,66.09c28.54,0,30.89,26.97,30.89,32.2v7.07H85.61c0,13.22,5.5,22.12,15.58,22.12
			c3.01,0,9.29,0.39,20.42-14.01l10.87,10.21c-14.53,17.93-25.53,17.28-31.29,17.28c-21.99,0-32.99-17.02-32.99-36.65
			C68.2,83.5,80.9,66.09,100.66,66.09z M87.84,91.61h25.39c-1.44-5.63-4.97-12.04-12.57-12.04C94.51,79.57,90.45,84.28,87.84,91.61z
			"/>
		<path class="st0" d="M148.05,139.52v-72h17.67v9.16c7.2-5.37,16.36-10.6,25.79-10.6c13.61,0,19.11,8.77,19.11,23.17v50.27h-17.54
			V89.26c0-19.5-21.99,0.92-27.36,5.89v44.38H148.05z"/>
		<path class="st0" d="M255.13,95.41c12.04,3.67,25,7.59,25,23.3c0,15.18-13.74,22.25-27.49,22.25c-11.13,0-23.3-5.5-30.37-16.49
			l12.43-9.95c4.45,8.25,11.78,13.09,18.2,13.22c4.97,0,9.69-2.88,9.69-9.03c0-5.5-6.68-7.72-12.57-9.56
			c-11.13-3.27-23.82-8.12-23.82-21.6c0-18.33,17.54-21.47,25.13-21.47c10.08,0,19.24,4.06,25.53,10.21l-11.13,10.6
			c-4.19-4.71-9.69-7.59-14.4-7.59c-2.49,0-7.59,1.18-7.59,8.25C243.74,91.88,249.5,93.58,255.13,95.41z"/>
		<path class="st0" d="M312.2,67.53v72h-17.54v-72H312.2z"/>
		<path class="st0" d="M330.27,139.52v-72h17.67v9.16c7.2-5.37,16.36-10.6,25.79-10.6c13.61,0,19.11,8.77,19.11,23.17v50.27H375.3
			V89.26c0-19.5-21.99,0.92-27.36,5.89v44.38H330.27z"/>
		<path class="st0" d="M418.63,109.81c-5.11-4.06-9.29-10.47-9.29-20.16c0-16.89,18.85-23.82,30.24-23.82
			c2.09,0,4.45,0.26,6.94,0.79c5.5-4.45,12.57-6.94,19.77-6.94c2.88,0,6.94,0.92,11.26,2.23l-2.49,13.48
			c-3.93-1.31-6.94-1.96-8.77-1.96c-1.18,0-2.75,0.26-4.19,0.52c4.19,3.8,7.59,9.29,7.59,15.71c0,21.47-18.72,25.79-30.11,25.79
			c-1.96,0-4.19,0-6.15-0.26c-2.49,2.09-4.58,4.45-4.71,6.41c0.65-0.52,5.11-0.92,8.38-0.79c0.79,0,2.23,0.13,2.75,0.13
			c17.67,0.92,38.35,4.32,38.35,22.38c0,16.1-11.91,29.85-38.09,29.85c-17.41,0-33.12-11-33.12-23.95
			c0.13-10.6,3.01-14.27,9.03-18.72c-3.14-1.96-4.97-4.45-4.97-8.25C411.04,118.06,414.18,113.87,418.63,109.81z M460.65,143.32
			c0-6.81-11.78-8.12-21.34-8.64c-4.97,0-5.37-0.13-7.2-0.13c-4.32,2.75-7.72,5.63-7.72,14.66c0,5.76,8.11,10.34,15.71,10.34
			C454.24,159.55,460.65,151.96,460.65,143.32z M439.57,102.87c4.84,0,12.7-2.23,12.7-13.22c0-8.25-7.85-11.39-12.7-11.39
			c-4.71,0-12.7,3.14-12.7,11.39C426.88,101.56,434.86,102.87,439.57,102.87z"/>
		<path class="st1" d="M307.88,60.85c2.61,1.54,5.59,2.36,8.62,2.36c9.52-0.01,17.23-7.72,17.24-17.24c0-0.94-0.09-1.88-0.26-2.8
			c2.05-3.51,3.13-7.5,3.13-11.56c0.02-10.06-6.53-18.96-16.15-21.93c-4.15-8.54-14.43-12.1-22.97-7.95
			c-3.47,1.68-6.27,4.48-7.95,7.95c-12.11,3.76-18.87,16.63-15.11,28.73c0.52,1.66,1.22,3.26,2.1,4.76
			c-0.17,0.92-0.25,1.86-0.26,2.8c0.01,9.52,7.72,17.23,17.24,17.24c3.03,0,6.01-0.82,8.62-2.36"/>
	</g>
	<g>
		<path class="st0" d="M703.15,66.31c16.49,0,32.86,10.08,32.86,37.44c0,27.62-16.36,37.44-32.86,37.44
			c-16.62,0-32.99-9.16-32.99-37.44C670.17,76.26,686.53,66.31,703.15,66.31z M703.15,79.4c-7.59,0-15.32,6.41-15.32,24.35
			c0,17.67,7.72,24.48,15.32,24.48c7.46,0,15.18-6.41,15.18-24.48C718.34,86.47,710.61,79.4,703.15,79.4z"/>
		<path class="st0" d="M767.82,67.75v7.07c1.31-2.62,7.46-8.51,14.27-8.51c12.57,0,20.42,9.16,20.42,9.16l-11.78,11.39
			c0,0-4.71-6.15-8.25-6.15c-5.5,0-10.6,7.98-13.74,14.66v44.37h-17.67v-72H767.82z"/>
		<path class="st0" d="M837.07,66.31c28.54,0,30.89,26.97,30.89,32.2v7.07h-45.95c0,13.22,5.5,22.12,15.58,22.12
			c3.01,0,9.29,0.39,20.42-14.01l10.87,10.21c-14.53,17.93-25.53,17.28-31.29,17.28c-21.99,0-32.99-17.02-32.99-36.65
			C804.61,83.72,817.3,66.31,837.07,66.31z M824.24,91.83h25.39c-1.44-5.63-4.97-12.04-12.57-12.04
			C830.92,79.79,826.86,84.5,824.24,91.83z"/>
		<path class="st0" d="M911.82,95.63c12.04,3.66,25,7.59,25,23.3c0,15.18-13.74,22.25-27.49,22.25c-11.13,0-23.3-5.5-30.37-16.49
			l12.43-9.95c4.45,8.25,11.78,13.09,18.2,13.22c4.97,0,9.69-2.88,9.69-9.03c0-5.5-6.68-7.72-12.57-9.56
			c-11.13-3.27-23.82-8.12-23.82-21.6c0-18.33,17.54-21.47,25.13-21.47c10.08,0,19.24,4.06,25.53,10.21l-11.13,10.6
			c-4.19-4.71-9.69-7.59-14.4-7.59c-2.49,0-7.59,1.18-7.59,8.25C900.43,92.1,906.19,93.8,911.82,95.63z"/>
		<path class="st1" d="M979.02,127.05c-2.88-0.92-2.75-5.5-2.75-9.16V80.97H997c2.43,0,3.85-2.75,2.44-4.73l-20.13-28.27h10.36
			c2.43,0,3.85-2.75,2.44-4.73l-18.6-26.12l-2.73-4.13c-1.19-1.68-3.68-1.68-4.88,0l-2.73,4.13l-18.6,26.12
			c-1.41,1.98,0.01,4.73,2.44,4.73h10.36l-20.13,28.27c-1.41,1.98,0.01,4.73,2.44,4.73h19.05v36.91c0,14.01,4.58,23.3,17.54,23.3
			c9.03,0,16.36-2.62,23.43-10.08l-10.6-10.08C985.04,125.08,981.38,127.83,979.02,127.05z"/>
		<g>
			<path class="st0" d="M642.67,67.86h19.77v13.22h-19.77v58.77h-17.54V81.08h-8.77V67.86h8.77V56.21
				c0-14.01,5.89-24.22,22.65-24.22c11.26,0,25.79,9.82,25.79,9.82l-10.08,10.08c0,0-10.73-6.68-15.71-6.68
				c-4.84,0-4.97,4.84-5.11,11V67.86z"/>
		</g>
	</g>
	<g>
		<path class="st1" d="M485.63,83.08h5.43v-16.3h11.03v16.3h10.21v8.32H502.1v23.38c0,2.31-0.08,5.19,1.73,5.76
			c1.48,0.49,3.79-1.24,6.34-3.79l6.67,6.34c-4.45,4.69-9.06,6.34-14.74,6.34c-8.15,0-11.03-5.85-11.03-14.66V91.4h-5.43V83.08z"/>
		<path class="st1" d="M522.11,128.53V61.02h11.11v27.42c4.53-3.38,10.29-6.09,16.22-6.09c8.56,0,12.02,5.52,12.02,14.57v31.62
			h-11.03V96.92c0-12.02-14.41,0.74-17.21,3.71v27.91H522.11z"/>
		<path class="st1" d="M590.36,82.34c17.95,0,19.43,16.96,19.43,20.25v4.45h-28.9c0,8.32,3.46,13.91,9.8,13.91
			c1.89,0,5.85,0.25,12.84-8.81l6.83,6.42c-9.14,11.28-16.05,10.87-19.68,10.87c-13.83,0-20.75-10.7-20.75-23.05
			C569.95,93.29,577.93,82.34,590.36,82.34z M582.29,98.4h15.97c-0.91-3.54-3.13-7.57-7.9-7.57
			C586.49,90.82,583.94,93.79,582.29,98.4z"/>
	</g>
</g>
</svg>
