<?xml version="1.0" encoding="utf-8"?>
<!-- Generator: Adobe Illustrator 26.0.3, SVG Export Plug-In . SVG Version: 6.00 Build 0)  -->
<svg version="1.1" id="Layer_1" xmlns="http://www.w3.org/2000/svg" xmlns:xlink="http://www.w3.org/1999/xlink" x="0px" y="0px"
	 viewBox="0 0 1000 102" style="enable-background:new 0 0 1000 102;" xml:space="preserve">
<style type="text/css">
	.st0{fill:#8BBF4B;}
	.st1{fill:#1D1D1B;}
</style>
<g>
	<g>
		<path class="st0" d="M19.36,56.08c7.1,2.16,14.73,4.47,14.73,13.73c0,8.95-8.1,13.11-16.2,13.11c-6.56,0-13.73-3.24-17.89-9.72
			l7.33-5.86c2.62,4.86,6.94,7.71,10.72,7.79c2.93,0,5.71-1.7,5.71-5.32c0-3.24-3.93-4.55-7.4-5.63
			C9.79,62.25,2.31,59.39,2.31,51.45c0-10.8,10.33-12.65,14.81-12.65c5.94,0,11.34,2.39,15.04,6.02l-6.56,6.25
			c-2.47-2.78-5.71-4.47-8.48-4.47c-1.47,0-4.47,0.69-4.47,4.86C12.65,53.99,16.04,55,19.36,56.08z"/>
		<path class="st0" d="M59.31,38.8c16.81,0,18.2,15.89,18.2,18.97v4.16H50.44c0,7.79,3.24,13.03,9.18,13.03
			c1.77,0,5.48,0.23,12.03-8.25l6.4,6.02C69.49,83.3,63.01,82.91,59.62,82.91c-12.96,0-19.44-10.03-19.44-21.59
			C40.18,49.06,47.66,38.8,59.31,38.8z M51.75,53.84h14.96c-0.85-3.32-2.93-7.1-7.4-7.1C55.68,46.74,53.29,49.52,51.75,53.84z"/>
		<path class="st0" d="M87.23,82.07V39.65h10.41v5.4c4.24-3.16,9.64-6.25,15.19-6.25c8.02,0,11.26,5.17,11.26,13.65v29.62h-10.33
			V52.45c0-11.49-12.96,0.54-16.12,3.47v26.14H87.23z"/>
		<path class="st0" d="M150.32,56.08c7.1,2.16,14.73,4.47,14.73,13.73c0,8.95-8.1,13.11-16.2,13.11c-6.56,0-13.73-3.24-17.89-9.72
			l7.33-5.86c2.62,4.86,6.94,7.71,10.72,7.79c2.93,0,5.71-1.7,5.71-5.32c0-3.24-3.93-4.55-7.4-5.63
			c-6.56-1.93-14.04-4.78-14.04-12.73c0-10.8,10.33-12.65,14.81-12.65c5.94,0,11.34,2.39,15.04,6.02l-6.56,6.25
			c-2.47-2.78-5.71-4.47-8.48-4.47c-1.47,0-4.47,0.69-4.47,4.86C143.61,53.99,147,55,150.32,56.08z"/>
		<path class="st0" d="M183.94,39.65v42.42h-10.33V39.65H183.94z"/>
		<path class="st0" d="M194.59,82.07V39.65H205v5.4c4.24-3.16,9.64-6.25,15.19-6.25c8.02,0,11.26,5.17,11.26,13.65v29.62h-10.33
			V52.45c0-11.49-12.96,0.54-16.12,3.47v26.14H194.59z"/>
		<path class="st0" d="M246.65,64.56c-3.01-2.39-5.48-6.17-5.48-11.88c0-9.95,11.11-14.04,17.82-14.04c1.23,0,2.62,0.15,4.09,0.46
			c3.24-2.62,7.4-4.09,11.65-4.09c1.7,0,4.09,0.54,6.63,1.31l-1.47,7.94c-2.31-0.77-4.09-1.16-5.17-1.16
			c-0.69,0-1.62,0.15-2.47,0.31c2.47,2.24,4.47,5.48,4.47,9.25c0,12.65-11.03,15.19-17.74,15.19c-1.16,0-2.47,0-3.62-0.15
			c-1.47,1.23-2.7,2.62-2.78,3.78c0.39-0.31,3.01-0.54,4.94-0.46c0.46,0,1.31,0.08,1.62,0.08c10.41,0.54,22.6,2.55,22.6,13.19
			c0,9.49-7.02,17.58-22.44,17.58c-10.26,0-19.51-6.48-19.51-14.11c0.08-6.25,1.77-8.41,5.32-11.03c-1.85-1.16-2.93-2.62-2.93-4.86
			C242.17,69.42,244.03,66.95,246.65,64.56z M271.4,84.3c0-4.01-6.94-4.78-12.57-5.09c-2.93,0-3.16-0.08-4.24-0.08
			c-2.54,1.62-4.55,3.32-4.55,8.64c0,3.39,4.78,6.09,9.25,6.09C267.62,93.87,271.4,89.39,271.4,84.3z M258.99,60.47
			c2.85,0,7.48-1.31,7.48-7.79c0-4.86-4.63-6.71-7.48-6.71c-2.78,0-7.48,1.85-7.48,6.71C251.51,59.7,256.21,60.47,258.99,60.47z"/>
		<path class="st1" d="M181.4,35.72c1.54,0.91,3.29,1.39,5.08,1.39c5.61-0.01,10.15-4.55,10.16-10.16c0-0.55-0.05-1.11-0.15-1.65
			c1.21-2.07,1.85-4.42,1.84-6.81c0.01-5.93-3.85-11.17-9.51-12.92c-2.44-5.03-8.5-7.13-13.53-4.68c-2.04,0.99-3.69,2.64-4.68,4.68
			c-7.13,2.22-11.12,9.8-8.9,16.93c0.3,0.98,0.72,1.92,1.23,2.8c-0.1,0.54-0.15,1.1-0.15,1.65c0.01,5.61,4.55,10.15,10.16,10.16
			c1.79,0,3.54-0.48,5.08-1.39"/>
	</g>
	<g>
		<path class="st0" d="M414.28,38.93c9.72,0,19.36,5.94,19.36,22.06c0,16.27-9.64,22.06-19.36,22.06c-9.79,0-19.44-5.4-19.44-22.06
			C394.85,44.79,404.49,38.93,414.28,38.93z M414.28,46.64c-4.47,0-9.02,3.78-9.02,14.34c0,10.41,4.55,14.42,9.02,14.42
			c4.4,0,8.95-3.78,8.95-14.42C423.23,50.81,418.68,46.64,414.28,46.64z"/>
		<path class="st0" d="M452.38,39.78v4.16c0.77-1.54,4.4-5.01,8.41-5.01c7.4,0,12.03,5.4,12.03,5.4l-6.94,6.71
			c0,0-2.78-3.62-4.86-3.62c-3.24,0-6.25,4.7-8.1,8.64V82.2h-10.41V39.78H452.38z"/>
		<path class="st0" d="M493.18,38.93c16.81,0,18.2,15.89,18.2,18.97v4.16h-27.07c0,7.79,3.24,13.03,9.18,13.03
			c1.77,0,5.48,0.23,12.03-8.25l6.4,6.02c-8.56,10.57-15.04,10.18-18.43,10.18c-12.96,0-19.44-10.03-19.44-21.59
			C474.05,49.19,481.54,38.93,493.18,38.93z M485.62,53.97h14.96c-0.85-3.32-2.93-7.1-7.4-7.1
			C489.56,46.87,487.17,49.65,485.62,53.97z"/>
		<path class="st0" d="M537.22,56.21c7.1,2.16,14.73,4.47,14.73,13.73c0,8.95-8.1,13.11-16.2,13.11c-6.56,0-13.73-3.24-17.89-9.72
			l7.33-5.86c2.62,4.86,6.94,7.71,10.72,7.79c2.93,0,5.71-1.7,5.71-5.32c0-3.24-3.93-4.55-7.4-5.63
			c-6.56-1.93-14.04-4.78-14.04-12.73c0-10.8,10.33-12.65,14.81-12.65c5.94,0,11.34,2.39,15.04,6.02l-6.56,6.25
			c-2.47-2.78-5.71-4.47-8.48-4.47c-1.47,0-4.47,0.69-4.47,4.86C530.51,54.12,533.9,55.13,537.22,56.21z"/>
		<path class="st1" d="M576.81,74.72c-1.7-0.54-1.62-3.24-1.62-5.4V47.57h12.21c1.43,0,2.27-1.62,1.44-2.79l-11.86-16.66h6.11
			c1.43,0,2.27-1.62,1.44-2.79L573.57,9.94l-1.61-2.43c-0.7-0.99-2.17-0.99-2.87,0l-1.61,2.43l-10.96,15.39
			c-0.83,1.17,0,2.79,1.44,2.79h6.11L552.2,44.78c-0.83,1.17,0,2.79,1.44,2.79h11.22v21.75c0,8.25,2.7,13.73,10.33,13.73
			c5.32,0,9.64-1.54,13.8-5.94l-6.25-5.94C580.36,73.56,578.2,75.18,576.81,74.72z"/>
		<g>
			<path class="st0" d="M378.65,39.85h11.65v7.79h-11.65v34.63h-10.33V47.64h-5.17v-7.79h5.17v-6.86c0-8.25,3.47-14.27,13.34-14.27
				c6.63,0,15.19,5.78,15.19,5.78l-5.94,5.94c0,0-6.32-3.93-9.25-3.93c-2.85,0-2.93,2.85-3.01,6.48V39.85z"/>
		</g>
	</g>
	<g>
		<path class="st1" d="M286.12,48.81h3.2v-9.6h6.5v9.6h6.02v4.9h-6.02v13.78c0,1.36-0.05,3.06,1.02,3.4
			c0.87,0.29,2.23-0.73,3.74-2.23l3.93,3.74c-2.62,2.76-5.34,3.74-8.68,3.74c-4.8,0-6.5-3.44-6.5-8.63V53.71h-3.2V48.81z"/>
		<path class="st1" d="M307.61,75.59V35.81h6.55v16.15c2.67-1.99,6.06-3.59,9.56-3.59c5.04,0,7.08,3.25,7.08,8.59v18.63h-6.5V56.96
			c0-7.08-8.49,0.44-10.14,2.18v16.44H307.61z"/>
		<path class="st1" d="M347.83,48.38c10.57,0,11.45,9.99,11.45,11.93v2.62h-17.03c0,4.9,2.04,8.2,5.77,8.2
			c1.12,0,3.44,0.15,7.57-5.19l4.03,3.78c-5.38,6.65-9.46,6.4-11.59,6.4c-8.15,0-12.22-6.31-12.22-13.58
			C335.8,54.83,340.5,48.38,347.83,48.38z M343.07,57.84h9.41c-0.53-2.09-1.84-4.46-4.66-4.46
			C345.55,53.37,344.04,55.12,343.07,57.84z"/>
	</g>
</g>
</svg>
