<?xml version="1.0" encoding="UTF-8" standalone="no"?>
<!DOCTYPE svg PUBLIC "-//W3C//DTD SVG 1.1//EN" "http://www.w3.org/Graphics/SVG/1.1/DTD/svg11.dtd">
<svg width="300" height="129.1" xmlns="http://www.w3.org/2000/svg" xmlns:xlink="http://www.w3.org/1999/xlink" version="1.1">
 <desc>Logo of De Montfort University</desc>
 <g>
   <path fill="#9d0e31" fill-rule="nonzero" id="path28" d="m22.19462,0c0,0 4.64073,5.13366 4.64073,17.13248c0,17.01688 -18.83225,30.51275 -18.83225,47.86828c0,20.94884 12.18864,27.55292 12.18864,36.42163c0,4.1629 -1.23755,5.77842 -1.23755,5.77842c0,0 -18.95419,-15.88449 -18.95419,-37.41669c0,-19.52135 12.46697,-30.01472 17.82506,-38.32488c2.78275,-4.31239 3.74628,-6.47059 3.88606,-8.05245c0,0 -1.58189,-2.59291 -1.58189,-6.47622c0,-3.78822 2.58395,-9.35172 2.58395,-12.56613c0,-2.82973 -0.51855,-4.36443 -0.51855,-4.36443"/>
   <path fill="#9d0e31" fill-rule="nonzero" id="path30" d="m63.80892,36.84184c-1.04798,-1.64354 -9.93897,-4.03318 -12.90908,-4.2302l-0.91021,4.46125c0,0 3.01785,0.48286 7.04511,2.60479c4.98999,2.63333 5.95208,4.83054 5.95208,4.83054c0,0 1.86452,-5.72437 0.8221,-7.6664"/>
   <path fill="#9d0e31" fill-rule="nonzero" id="path32" d="m60.87654,106.61897c0,0 1.48269,-4.70082 1.24945,-9.06664c-0.48352,-8.82156 -4.60201,-12.56914 -14.57111,-22.78416c-5.39744,-5.51384 -3.32487,-12.1782 -3.32487,-12.1782c0,0 -7.65079,-2.87926 -6.17282,-8.92177c0.87067,-3.55867 4.87007,-3.98113 8.4282,-4.36506c9.24376,-0.99929 9.64692,-4.86495 10.41553,-6.78495c0,0 4.88626,2.70876 3.68478,6.69178c-1.1986,3.97762 -5.26811,3.93671 -7.09473,3.78811c-2.35151,-0.19226 -9.59832,-1.67907 -10.6088,1.48743c-0.94569,2.96408 2.44458,5.83133 8.25729,7.38306c8.4407,2.25402 11.80022,-0.62287 11.80022,-0.62287c0,0 -0.16951,3.23142 -1.48802,4.41222c-1.53536,1.37709 -4.84365,1.03532 -4.84365,1.03532c0,0 -2.20885,2.90179 2.97215,6.40192c3.60956,2.43478 11.2245,5.07748 11.2245,14.86519c0,10.98652 -9.92814,18.65868 -9.92814,18.65868"/>
   <path fill="#9d0e31" fill-rule="nonzero" id="path34" d="m45.57578,57.79259c0,0 2.01189,-2.59192 6.04288,-2.3062c4.56161,0.32714 7.55692,0.3708 10.76783,-0.45136c6.06645,-1.54884 8.41817,-4.77213 8.41817,-4.77213c0,0 -2.20887,5.17756 -7.3001,7.62211c-2.50195,1.20594 -6.16053,1.64217 -10.20562,0.48375c-6.33147,-1.82156 -7.72315,-0.57621 -7.72315,-0.57621"/>
   <path fill="#9d0e31" fill-rule="nonzero" id="path36" d="m48.12161,39.08085c2.44108,0.3429 5.41691,1.49481 6.57453,2.1587c0,0 -0.15269,2.54788 -2.45604,4.03053c-2.26627,1.46565 -5.42533,1.60701 -8.54401,2.05474c-3.66695,0.52155 -7.21811,2.21862 -7.98467,5.52886c-1.72761,7.46662 5.97913,11.16216 5.97913,11.16216c0,0 -1.74976,6.39039 4.61039,12.81683c9.39521,9.54601 13.41534,13.43132 13.41534,21.6738c0,15.88735 -16.77977,30.16145 -16.77977,30.16145c0,0 8.67006,-10.59745 8.67006,-23.29419c0,-11.36306 -6.33658,-14.13349 -11.07692,-18.2131c-3.98713,-3.45483 -7.24476,-7.86294 -7.65633,-17.27269c-0.82067,4.83929 -3.38146,6.90456 -3.38146,12.20097c0,3.94547 1.37589,6.66999 1.37589,6.66999c0,0 -9.17037,-5.63644 -9.17037,-16.23251c0,-7.10109 4.78687,-13.76046 4.78072,-18.70296c-1.48739,5.17432 -8.64424,10.39881 -8.64424,20.19801c0,8.51445 3.8836,13.88731 3.8836,13.88731c0,0 -10.65656,-7.93463 -10.65656,-22.75954c0,-13.41117 12.19314,-25.45452 12.19314,-25.45452c0,0 -0.82497,-8.23109 4.06746,-8.23109c2.92767,0 3.69463,2.44706 3.69463,2.44706c0,0 7.88507,-2.91391 17.48587,-1.5845l-0.81657,4.26622l-1.87091,-0.23117c0,0 0.1441,0.7756 0.1441,1.29639c0,1.66881 -1.35275,3.01924 -3.03138,3.01924c-1.68232,0 -3.03957,-1.35043 -3.03957,-3.01924c0,-0.64138 0.20168,-1.23823 0.54151,-1.72372c-3.51509,-0.17727 -10.52375,0.95024 -10.52375,1.27876c0,0.2004 4.85307,0.05617 7.63912,0.48062c0,2.99136 2.37181,5.37472 5.38269,5.37472c2.56858,0 4.62966,-1.59976 5.19434,-3.98713"/>
   <path fill="#9d0e31" fill-rule="nonzero" id="path38" d="m24.93784,112.60043c0,0 1.31995,-0.97251 2.5985,-1.42749c1.27874,-0.4641 2.66325,-0.91824 3.49848,-2.02358c0.83358,-1.10274 1.39025,-2.66722 1.58312,-3.57969c0.18795,-0.90672 0.27054,-1.83932 1.4505,-2.00507c1.16849,0.20303 1.26114,1.13626 1.41691,2.05673c0.15905,0.91822 0.6614,2.49559 1.45686,3.63497c0.79402,1.13039 2.16562,1.62904 3.42674,2.13631c1.2683,0.50852 2.56387,1.51857 2.56387,1.51857c0,0 -0.46753,-1.58474 -0.51199,-2.94469c-0.04898,-1.3567 -0.04898,-2.81508 -0.85018,-3.95123c-0.80058,-1.13489 -2.11418,-2.14944 -2.92111,-2.61144c-0.81062,-0.45972 -1.66633,-0.82551 -1.46036,-1.99695c0.56077,-1.05182 1.46241,-0.80999 2.37856,-0.67515c0.92274,0.13285 2.59317,0.14124 3.92727,-0.26458c1.33533,-0.40393 2.22998,-1.54972 3.1029,-2.59342c0.87314,-1.04445 2.25887,-1.98994 2.25887,-1.98994c0,0 -1.6985,-0.07393 -3.00492,-0.4511c-1.30623,-0.3753 -2.70242,-0.82928 -4.03734,-0.42348c-1.33348,0.40394 -2.70301,1.34168 -3.39394,1.96779c-0.68723,0.62212 -1.29987,1.32655 -2.3505,0.77048c-0.82742,-0.85793 -0.31892,-1.64068 0.09161,-2.47694c0.40891,-0.83003 0.93175,-2.40627 0.95839,-3.79573c0.02234,-1.38583 -0.79134,-2.58968 -1.51283,-3.7452c-0.72064,-1.1494 -1.19595,-2.73891 -1.19595,-2.73891c0,0 -0.5288,1.57311 -1.29063,2.6965c-0.76328,1.1269 -1.61898,2.30331 -1.6442,3.68791c-0.02356,1.38734 0.44334,2.98297 0.82949,3.82926c0.37713,0.84866 0.8598,1.64928 0.00267,2.4772c-1.06969,0.5214 -1.65773,-0.20892 -2.32508,-0.85742c-0.6649,-0.64339 -2.00288,-1.63129 -3.31463,-2.07951c-1.30867,-0.45273 -2.71041,-0.04742 -4.02892,0.28348c-1.31626,0.32775 -2.9455,0.29536 -2.9455,0.29536c0,0 1.28079,1.04532 2.11252,2.11127c0.83646,1.07886 1.69401,2.25766 3.00638,2.70737c1.30724,0.45249 2.96723,0.49989 3.88997,0.39594c0.92744,-0.09895 1.83708,-0.30786 2.35705,0.7596c0.1652,1.18019 -0.70589,1.51582 -1.52594,1.95055c-0.82414,0.43272 -2.17546,1.39973 -3.00924,2.50648c-0.8305,1.10974 -0.88379,2.56676 -0.97622,3.92033c-0.09307,1.35318 -0.61119,2.92542 -0.61119,2.92542m7.47412,-12.2963c0.01577,-0.954 0.80509,-1.72023 1.76266,-1.69659c0.9549,0.01226 1.7182,0.79988 1.70036,1.75838c-0.01804,0.95839 -0.80367,1.71935 -1.76513,1.70221c-0.95307,-0.01852 -1.71286,-0.80413 -1.6979,-1.76402"/>
   <path fill="#9d0e31" fill-rule="nonzero" id="path40" d="m76.29968,63.55662c-0.19656,0.09444 -0.41976,0.14925 -0.65078,0.14925c-0.82127,0 -1.48985,-0.6639 -1.48985,-1.48955c0,-0.81689 0.66858,-1.48692 1.48985,-1.48692l0.28695,-0.08406c-0.44394,-2.49847 -1.14204,-4.90448 -2.06231,-7.21605c0,0.62349 -0.24102,1.53397 -0.81575,2.01108c-1.19862,1.00068 -3.64607,2.44906 -1.71449,5.1722c1.06541,1.49843 0.94774,1.97743 0.40173,2.47381c-0.68356,0.62211 -1.47347,0.01439 -2.38103,-0.83253c-1.43884,-1.34168 -2.44601,-1.63203 -3.64462,-0.81451c-1.45094,0.98715 -1.10124,2.34872 -0.76637,3.49974c0.3345,1.15166 0.38184,1.2919 0.43268,2.2544c-0.05083,0.96387 -0.09818,1.10261 -0.43268,2.25838c-0.33492,1.14766 -0.68457,2.51199 0.76637,3.49687c1.19862,0.81577 2.20579,0.53166 3.64462,-0.8149c0.90756,-0.84653 1.69749,-1.45727 2.38103,-0.83089c0.54601,0.49314 0.66367,0.97665 -0.40173,2.47871c-1.93156,2.71801 0.51588,4.15927 1.71449,5.16444c0.57473,0.479 0.81575,1.39233 0.81575,2.01069c0.93606,-2.33569 1.6399,-4.76825 2.08384,-7.29411l-0.30848,-0.00412c-0.82127,0 -1.48985,-0.66714 -1.48985,-1.48843c0,-0.82088 0.66858,-1.4864 1.48985,-1.4864c0.24331,0 0.4706,0.05742 0.67432,0.16399l0.07829,-1.79491c-0.23528,0.09972 -0.49149,0.15699 -0.76408,0.15699c-1.08611,0 -1.96558,-0.8813 -1.96558,-1.97005c0,-1.08709 0.8795,-1.96429 1.96558,-1.96429c0.29268,0 0.56815,0.06303 0.81635,0.17514l-0.15411,-1.89375l0,-0.00024l0.00002,0.00005l-0.00002,-0.00003zm-6.98428,3.68289c0,-0.81527 0.66859,-1.48367 1.48927,-1.48367c0.82066,0 1.48637,0.6684 1.48637,1.48367c0,0.82402 -0.66571,1.48954 -1.48637,1.48954c-0.82066,0 -1.48927,-0.66552 -1.48927,-1.48954"/>
   <path fill="#231f20" fill-rule="nonzero" id="path42" d="m283.3732,45.99392l5.61124,0l0,17.31887l5.37015,0l0,-17.31887l5.61206,0l0,-4.16354l-16.59344,0l0,4.16354zm-19.52664,17.31887l5.37097,0l0,-7.72406l3.40875,0l4.22406,7.72406l6.0043,0l-4.9176,-8.62928c2.68582,-0.78488 4.43469,-3.01751 4.43469,-5.79268c0,-4.8278 -2.95612,-7.06042 -7.784,-7.06042l-10.74115,0l0,21.48239l-0.00003,0l0,-0.00001zm5.37097,-17.49939l4.91745,0c1.72021,0.03003 2.86664,0.90421 2.86664,2.89565c0,1.99158 -1.14642,2.86664 -2.86664,2.89667l-4.91745,0l0,-5.79231l0,-0.00001zm-7.39169,6.75819c0,-6.0345 -4.01291,-11.34442 -10.86232,-11.34442c-6.84879,0 -10.86179,5.30993 -10.86179,11.34442c0,6.03437 4.013,11.3443 10.86179,11.3443c6.84941,0 10.86232,-5.30993 10.86232,-11.3443zm-5.371,0c0,3.31849 -1.50789,6.81837 -5.49132,6.81837c-4.22386,0 -5.49011,-3.68064 -5.49011,-6.81837c0,-4.82791 2.35234,-6.81849 5.49011,-6.81849c3.98341,0 5.49132,3.43909 5.49132,6.81849zm-34.1236,10.7412l5.37021,0l0,-8.62928l10.22816,0l0,-4.16365l-10.22816,0l0,-4.52593l11.04309,0l0,-4.16354l-16.4133,0l0,21.4824l0,0.00001l0,-0.00001zm-18.73529,-17.31887l5.61122,0l0,17.31887l5.37019,0l0,-17.31887l5.6118,0l0,-4.16354l-16.59322,0l0,4.16354zm-20.03456,17.31887l4.88811,0l0,-13.51751l0.06027,0l7.87439,13.51751l5.37019,0l0,-21.48239l-4.8873,0l0,13.72831l-0.06023,0l-7.81436,-13.72831l-5.43108,0l0,21.48239zm-1.87029,-10.7412c0,-6.0345 -4.0121,-11.34442 -10.86153,-11.34442c-6.84938,0 -10.8623,5.30993 -10.8623,11.34442c0,6.03437 4.01292,11.3443 10.8623,11.3443c6.84943,0 10.86153,-5.30993 10.86153,-11.3443zm-5.3708,0c0,3.31849 -1.5079,6.81837 -5.49072,6.81837c-4.22464,0 -5.4915,-3.68064 -5.4915,-6.81837c0,-4.82791 2.35376,-6.81849 5.4915,-6.81849c3.98282,0 5.49072,3.43909 5.49072,6.81849zm-41.69688,10.7412l4.88812,0l0,-16.68536l0.06026,0l4.37448,16.68536l4.73747,0l4.25394,-16.68536l0.0603,0l0,16.68536l5.06888,0l0,-21.48239l-7.784,0l-3.92256,15.96067l-0.06024,0l-3.80205,-15.96067l-7.8746,0l0,21.48239zm-9.89595,0l0,-4.16389l-11.34439,0l0,-5.06886l9.74528,0l0,-4.16352l-9.74528,0l0,-3.92258l10.43909,0l0,-4.16353l-15.8101,0l0,21.48239l16.7154,0l0,-0.00001zm-33.09776,-16.95671l3.04739,0c4.04224,0 5.49068,2.74566 5.49068,6.2155c0,3.46973 -1.44846,6.21514 -5.46057,6.21514l-3.0775,0l0,-12.43064zm-5.37101,16.95671l8.32716,0c6.54749,0 10.95271,-3.10768 10.95271,-10.7412c0,-7.63338 -4.40523,-10.74119 -10.95271,-10.74119l-8.32716,0"/>
   <path fill="#231f20" fill-rule="nonzero" id="path44" d="m283.61218,93.82579l6.50137,0l0,-12.18946l9.86456,-13.95248l-7.59912,0l-5.51654,9.03262l-5.51657,-9.03262l-7.5983,0l9.86459,13.95248l0,12.18946zm-31.1998,-21.07408l6.79507,0l0,21.07408l6.50281,0l0,-21.07408l6.79486,0l0,-5.06784l-20.09274,0l0,5.06784zm-8.73094,21.07408l6.50279,0l0,-26.14192l-6.50279,0l0,26.14192zm-26.74193,-4.58849c3.54381,3.89044 7.30623,5.32219 11.72687,5.32219c4.8586,0 11.90964,-1.46766 11.90964,-9.32571c0,-4.99342 -4.27403,-6.60832 -9.46219,-7.45197l-2.48412,-0.40532c-2.48413,-0.40319 -3.61697,-1.09959 -3.61697,-2.49483c0,-1.69032 2.19226,-2.6442 3.69096,-2.6442c2.73892,0 5.2603,1.21233 6.97704,3.30397l4.93184,-3.56168c-2.92256,-3.26743 -7.16074,-5.02869 -11.4713,-5.02869c-5.55319,0 -10.63074,2.60617 -10.63074,8.92113c0,3.85577 2.63071,6.42556 7.45201,7.19603l5.40688,0.8807c1.93745,0.33076 2.92395,0.99079 2.92395,2.31357c0,2.27693 -3.14284,3.01076 -4.86024,3.01076c-3.10474,0 -5.26033,-1.21159 -7.52512,-3.26669l-4.96851,3.2308l0,-0.00005l0,-0.00002zm-23.1981,4.58849l6.50301,0l0,-9.3989l4.12895,0l5.11359,9.3989l7.27043,0l-5.95479,-10.50164c3.25107,-0.95411 5.37021,-3.67063 5.37021,-7.04729c0,-5.87487 -3.57982,-8.59299 -9.42558,-8.59299l-13.0058,0l0,26.14192l-0.00002,0zm6.50301,-21.29588l5.95471,0c2.08241,0.03664 3.47063,1.10349 3.47063,3.52589c0,2.4219 -1.38817,3.48849 -3.47063,3.52516l-5.95471,0l0,-7.05106zm-9.20604,21.29588l0,-5.06685l-13.73668,0l0,-6.16724l11.79985,0l0,-5.06812l-11.79985,0l0,-4.77188l12.64056,0l0,-5.06784l-19.1436,0l0,26.14192l20.23972,0l0,0.00001zm-37.4097,0l6.90453,0l8.98798,-26.14192l-6.83217,0l-5.48006,18.65179l-0.07318,0l-5.297,-18.65179l-6.90538,0l8.6953,26.14192l-0.00002,0zm-17.20671,0l6.50279,0l0,-26.14192l-6.50279,0l0,26.14192zm-25.06184,0l5.91826,0l0,-16.44931l0.07317,0l9.53519,16.44931l6.50282,0l0,-26.14192l-5.91826,0l0,16.70714l-0.07317,0l-9.46204,-16.70714l-6.57599,0l0,26.14192l0.00001,0zm-3.06827,-26.14192l-6.5028,0l0,16.48684c0,2.93682 -1.1328,5.10252 -4.53024,5.10252c-3.36077,0 -4.49358,-2.1657 -4.49358,-5.10252l0,-16.48684l-6.5028,0l0,17.03627c0,7.16075 6.02792,9.83936 10.99638,9.83936c5.00494,0 11.03304,-2.67861 11.03304,-9.83936"/>
   <path fill="#231f20" fill-rule="nonzero" id="path46" d="m180.36626,113.2841l3.58028,0l0,-5.15068l2.27342,0l2.81554,5.15068l4.00293,0l-3.2798,-5.7533c1.79138,-0.52367 2.95758,-2.01146 2.95758,-3.8623c0,-3.21889 -1.97194,-4.70668 -5.19003,-4.70668l-7.1599,0l0,14.32227l-0.00002,0zm3.58028,-11.66719l3.27832,0c1.1472,0.02052 1.91049,0.60261 1.91049,1.93114c0,1.32631 -0.76331,1.91102 -1.91049,1.93029l-3.27832,0l0,-3.86143zm-4.6664,11.66719l0,-2.77708l-7.56328,0l0,-3.37791l6.49728,0l0,-2.77705l-6.49728,0l0,-2.61469l6.95924,0l0,-2.77554l-10.53946,0l0,14.32227l11.14349,0zm-24.23769,-11.54672l3.74176,0l0,11.54672l3.57904,0l0,-11.54672l3.74239,0l0,-2.77554l-11.06319,0l0,2.77554zm-13.57683,9.03162c1.95061,2.1328 4.02296,2.9174 6.45628,2.9174c2.67577,0 6.55751,-0.80613 6.55751,-5.11052c0,-2.73454 -2.35295,-3.61959 -5.2095,-4.08233l-1.36809,-0.2218c-1.36732,-0.2208 -1.992,-0.60323 -1.992,-1.36858c0,-0.92473 1.20804,-1.44701 2.03156,-1.44701c1.50935,0 2.89734,0.66364 3.84283,1.80978l2.71451,-1.95177c-1.60834,-1.78915 -3.94122,-2.75391 -6.31569,-2.75391c-3.05658,0 -5.85225,1.42736 -5.85225,4.88795c0,2.11128 1.44763,3.51789 4.10271,3.94136l2.97623,0.48351c1.0668,0.18076 1.60977,0.54219 1.60977,1.26688c0,1.2466 -1.7303,1.64828 -2.67496,1.64828c-1.70958,0 -2.8967,-0.66203 -4.14351,-1.79053l-2.7354,1.77128l0,0.00002zm-0.94548,2.51511l0,-2.77708l-7.56306,0l0,-3.37791l6.49649,0l0,-2.77705l-6.49649,0l0,-2.61469l6.95906,0l0,-2.77554l-10.53954,0l0,14.32227l11.14354,0zm-12.57171,-10.98365c-1.32713,-2.37312 -3.1773,-3.7402 -5.99429,-3.7402c-4.46571,0 -6.95927,3.53867 -6.95927,7.56306c0,4.02216 2.67518,7.56308 7.2411,7.56308c2.41402,0 4.54522,-1.42963 5.77273,-3.66138l-2.83586,-1.36731c-0.56303,1.28638 -1.97131,2.01083 -2.93687,2.01083c-2.81556,0 -3.66142,-2.45331 -3.66142,-4.54522c0,-3.22014 1.5696,-4.54657 3.54092,-4.54657c1.24757,0 2.4743,0.8249 2.97643,2.15205l2.85655,-1.42834l0,0.00002l-0.00001,-0.00001zm-17.88101,10.98365l3.58025,0l0,-14.32227l-3.58025,0l0,14.32227zm-1.48927,0l0,-2.77708l-7.56245,0l0,-3.37791l6.49707,0l0,-2.77705l-6.49707,0l0,-2.61469l6.95989,0l0,-2.77554l-10.53954,0l0,14.32227l11.1421,0zm-22.3266,0l9.17281,0l0,-3.01789l-5.59174,0l0,-11.30441l-3.58109,0"/>
 </g>
</svg>