<?xml version="1.0" encoding="utf-8"?>
<!-- Generator: Adobe Illustrator 26.0.3, SVG Export Plug-In . SVG Version: 6.00 Build 0)  -->
<svg version="1.1" id="layer" xmlns="http://www.w3.org/2000/svg" xmlns:xlink="http://www.w3.org/1999/xlink" x="0px" y="0px"
	 viewBox="0 0 600 139.1" style="enable-background:new 0 0 600 139.1;" xml:space="preserve">
<style type="text/css">
	.st0{fill:#008641;}
</style>
<g>
	<path class="st0" d="M160.7,119.8l-17.1-32h9.3l-17.1-32.1h9.6L115.6,0.1V0L85.8,55.7h9.6l-10.6,20c-2.4-2.5-5.3-4.6-8.6-6.1
		c0.7-2.5,1-5,1-7.6c-0.2-15.3-12.7-27.6-28-27.6c-0.1,0-0.2,0-0.4,0c-11.2,0.1-21.1,6.9-25.4,17c-4.2,0.6-8.1,2.6-11.1,5.7
		c-3.7,3.8-5.7,8.8-5.6,14c0,2.7,0.6,5.4,1.7,7.9C3,83.8-0.1,90.8,0,98.2c0.1,6.8,2.8,13.1,7.7,17.9c4.8,4.7,11.1,7.2,17.7,7.2
		c0.1,0,0.2,0,0.3,0c4.3-0.1,8.4-1.2,11.9-3.2v19h14.5v-19c3.9,2,8.3,3,12.9,3c4.6-0.1,9-1.2,12.9-3.3h5.4l0,0h25.1v19.3h14v-19.3
		H160.7z M64.9,112c-4.9,0-9.4-2-12.6-5.4H36.8c-2.6,3.5-6.7,5.6-11.2,5.7c-3.8,0.1-7.4-1.4-10.1-4.1s-4.3-6.2-4.3-10
		C11.1,92.9,14,88,18.7,85.5l1.3-0.7l1.1-6.9l-0.9-1c-1.4-1.6-2.2-3.6-2.3-5.7c0-2.3,0.8-4.5,2.4-6.1s3.8-2.6,6-2.6l0,0
		c0.2,0,0.5,0,0.7,0l1.4,0.1l4.1-3.3l0.3-1c1.9-7.3,8.5-12.5,16.1-12.6c0.1,0,0.1,0,0.2,0c9.2,0,16.7,7.4,16.8,16.6
		c0,2.9-0.7,5.7-2.1,8.3l-1.1,2l1.8,5.5l3.2,0.6C75.6,80.2,81.3,87,81.4,95c0,2.2-0.4,4.3-1.1,6.3l-1.9,3.5
		c-0.5,0.8-1.1,1.5-1.8,2.2C73.6,110.1,69.4,111.9,64.9,112"/>
	<path class="st0" d="M261.7,73.1l1.3-5.5c-0.3-0.1-0.7-0.2-1.1-0.3c-0.5-0.1-1.1-0.2-1.7-0.3c-0.6-0.1-1.2-0.2-1.7-0.2
		c-0.6-0.1-1.1-0.1-1.5-0.1c-2.3,0-4.5,0.2-6.4,0.6c-1.9,0.4-3.5,0.9-4.8,1.3v27.2h6.6V72.9c0.3-0.1,0.9-0.2,1.7-0.4
		c0.8-0.1,1.6-0.2,2.3-0.2c1.3,0,2.4,0.1,3.4,0.3C260.6,72.8,261.2,72.9,261.7,73.1"/>
	<path class="st0" d="M438.3,68.2c1.3-0.4,2.9-0.7,5-1c2-0.3,4.3-0.5,6.8-0.5c2.3,0,4.3,0.3,5.9,1c1.6,0.6,2.8,1.5,3.7,2.7
		c0.9,1.1,1.6,2.5,2,4.2c0.4,1.6,0.6,3.4,0.6,5.3V96h-6.6V81c0-1.5-0.1-2.8-0.3-3.9c-0.2-1.1-0.5-2-1-2.6c-0.5-0.7-1.1-1.2-1.9-1.5
		s-1.7-0.5-2.9-0.5c-0.8,0-1.7,0.1-2.6,0.2s-1.6,0.2-2,0.3v23.1h-6.6V68.2H438.3z"/>
	<path class="st0" d="M545.1,68.2c1.3-0.4,2.9-0.7,5-1c2-0.3,4.3-0.5,6.8-0.5c2.3,0,4.3,0.3,5.9,1c1.6,0.6,2.8,1.5,3.7,2.7
		c0.9,1.1,1.6,2.5,2,4.2c0.4,1.6,0.6,3.4,0.6,5.3V96h-6.6V81c0-1.5-0.1-2.8-0.3-3.9s-0.5-2-1-2.6c-0.5-0.7-1.1-1.2-1.9-1.5
		s-1.7-0.5-2.9-0.5c-0.8,0-1.7,0.1-2.6,0.2c-0.9,0.1-1.6,0.2-2,0.3v23.1h-6.6V68.2H545.1z"/>
	<path class="st0" d="M600,95c-1.3,0.4-3,0.8-4.9,1.1c-2,0.3-4.1,0.5-6.3,0.5c-2.3,0-4.3-0.3-6.1-1c-1.8-0.7-3.3-1.7-4.6-3
		s-2.2-2.9-2.9-4.7c-0.7-1.8-1-3.9-1-6.2c0-2.3,0.3-4.3,0.8-6.1c0.6-1.8,1.4-3.4,2.5-4.7c1.1-1.3,2.4-2.3,4-3
		c1.6-0.7,3.4-1.1,5.4-1.1c1.4,0,2.6,0.2,3.7,0.5c1.1,0.3,2,0.7,2.7,1.1V54.7l6.6-1.1V95H600z M581,81.5c0,2.9,0.7,5.2,2.1,6.9
		c1.4,1.7,3.3,2.5,5.7,2.5c1.1,0,2,0,2.7-0.1s1.4-0.2,1.8-0.3V74.1c-0.6-0.4-1.4-0.8-2.3-1.1c-1-0.3-2-0.5-3.1-0.5
		c-2.4,0-4.2,0.8-5.3,2.5C581.6,76.4,581,78.7,581,81.5"/>
	<path class="st0" d="M502.1,94c0.8,0.7,1.8,1.3,3.1,1.7c1.3,0.4,3,0.6,5,0.6l1.3-5.5c-0.9-0.1-2-0.2-2.6-0.4
		c-0.6-0.2-1-0.5-1.3-0.9s-0.6-0.8-0.7-1.4c-0.1-0.5-0.2-1.2-0.2-2V53.4l-6.6,1.1v32.9c0,1.4,0.2,2.7,0.5,3.8
		C500.8,92.3,501.3,93.3,502.1,94"/>
	<path class="st0" d="M538,73.2c-0.4-1.4-1-2.6-1.9-3.6c-0.9-1-2.1-1.8-3.6-2.3s-3.3-0.8-5.5-0.8c-1.8,0-3.5,0.1-5.1,0.4
		c-1.5,0.3-2.7,0.5-3.5,0.8l1.2,5.2c0.7-0.2,1.6-0.4,2.6-0.6c1.3-0.2,2.7-0.3,4.2-0.3c1.1,0,2.1,0.1,2.8,0.4
		c0.7,0.3,1.3,0.7,1.8,1.2s0.8,1.1,1,1.8c0.2,0.7,0.3,1.4,0.3,2.2v1.1c-0.9-0.2-1.8-0.4-2.6-0.5s-1.6-0.1-2.3-0.1
		c-1.6,0-3.1,0.2-4.5,0.5c-1.4,0.3-2.7,0.8-3.8,1.5c-1.1,0.7-2,1.6-2.6,2.8c-0.6,1.1-1,2.5-1,4.2s0.3,3.2,0.8,4.3
		c0.6,1.2,1.4,2.1,2.4,2.8c1,0.7,2.2,1.3,3.6,1.6c1.4,0.3,3,0.5,4.7,0.5c2.6,0,4.9-0.2,7-0.5c2.1-0.3,3.6-0.6,4.6-0.8V77.7
		C538.6,76.2,538.4,74.6,538,73.2 M532.2,90.9c-1.1,0.2-2.6,0.3-4.6,0.3c-1.7,0-3-0.3-4-0.9s-1.5-1.7-1.5-3.3c0-0.8,0.2-1.5,0.5-2
		c0.4-0.5,0.8-0.9,1.5-1.2c0.6-0.3,1.3-0.5,2-0.6s1.5-0.2,2.2-0.2c0.8,0,1.6,0.1,2.3,0.2s1.2,0.2,1.6,0.3V90.9z"/>
	<path class="st0" d="M356.6,72.3c1.3,0,2.4,0.1,3.4,0.3c0.4,0.1,0.7,0.2,1,0.2l1.3-5.5c-0.1,0-0.1,0-0.2-0.1
		c-0.5-0.1-1.1-0.2-1.7-0.3c-0.6-0.1-1.2-0.2-1.7-0.2c-0.6-0.1-1.1-0.1-1.5-0.1c-2.3,0-4.5,0.2-6.4,0.6s-3.5,0.9-4.8,1.3v27.2h6.6
		V72.8c0.3-0.1,0.9-0.2,1.7-0.4C355.1,72.4,355.9,72.3,356.6,72.3"/>
	<path class="st0" d="M383.9,67.2c-0.8,3.4-1.8,7-2.8,10.6c-1,3.7-2.1,7.1-3.3,10.4c-0.7-1.6-1.4-3.3-2.1-5.1
		c-0.7-1.8-1.4-3.6-2-5.5c-0.6-1.8-1.2-3.7-1.7-5.4c-0.5-1.8-1-3.4-1.3-5h-1.4l-2.4,10.2c0.6,1.7,1.2,3.3,1.9,4.9
		c1.9,4.7,3.9,9.1,6,13.1c-0.7,1.7-1.6,3-2.6,3.8s-2.3,1.2-4,1.2c-1.3,0-2.6-0.3-6.3-1.4l-1.3,5.5c2.9,0.9,3.1,0.8,4.1,1
		s2.6,0.4,3.7,0.4c1.5,0,2.9-0.2,4.1-0.5s2.2-0.9,3.2-1.7c0.9-0.8,1.8-1.7,2.6-2.9c0.8-1.2,1.5-2.6,2.2-4.2
		c3.9-8.8,7.3-18.7,10.3-29.5h-6.9V67.2z"/>
	<path class="st0" d="M488.2,67.1c-1.9-0.3-4-0.5-6.1-0.5c-2.2,0-4.2,0.3-6,1c-1.7,0.7-3.2,1.7-4.5,2.9c-1.2,1.2-2.2,2.7-2.8,4.5
		c-0.6,1.7-1,3.7-1,5.7c0,2.2,0.3,4.2,0.9,5.9c0.6,1.7,1.4,3.1,2.5,4.2s2.4,2,3.9,2.6s3.2,0.9,5,0.9c1.4,0,2.6-0.2,3.7-0.5
		s1.9-0.7,2.6-1v1.1c0,2.1-0.6,3.8-1.7,4.9s-3,1.6-5.7,1.6c-1.7,0-3.2-0.1-4.7-0.4c-1.3-0.3-2.4-0.6-3.4-1l-1.3,5.6
		c1.2,0.4,2.6,0.8,4.1,1c1.7,0.3,3.4,0.4,5.1,0.4c4.8,0,8.3-1.1,10.6-3.2c2.3-2.1,3.5-5.4,3.5-10V68
		C491.8,67.8,490.1,67.5,488.2,67.1 M486.5,87.4c-0.6,0.4-1.3,0.7-2.3,1c-0.9,0.3-1.9,0.4-3,0.4c-1.9,0-3.5-0.7-4.7-1.9
		c-1.2-1.3-1.8-3.3-1.8-6.2c0-2.6,0.6-4.7,1.9-6.3c1.3-1.6,3.1-2.4,5.5-2.4c1.1,0,1.9,0,2.6,0.1s1.3,0.2,1.7,0.3v15H486.5z"/>
	<polygon class="st0" points="431.6,90 416.1,90 416.1,78.9 430.3,78.9 430.3,73.1 416.1,73.1 416.1,63.8 431.6,63.8 431.6,58 
		409.3,58 409.3,95.8 431.6,95.8 	"/>
	<polygon class="st0" points="207.8,73.1 193.6,73.1 193.6,63.8 209,63.8 209,57.9 186.7,57.9 186.7,95.8 193.6,95.8 193.6,78.9 
		207.8,78.9 	"/>
	<path class="st0" d="M240.2,81.5c0,2.3-0.3,4.3-1,6.2c-0.7,1.9-1.6,3.4-2.8,4.8c-1.2,1.3-2.6,2.3-4.3,3.1c-1.7,0.7-3.6,1.1-5.6,1.1
		s-3.9-0.4-5.6-1.1s-3.1-1.7-4.3-3.1c-1.2-1.3-2.1-2.9-2.8-4.8s-1-3.9-1-6.2c0-2.3,0.3-4.3,1-6.2c0.7-1.8,1.6-3.4,2.8-4.7
		c1.2-1.3,2.7-2.3,4.3-3c1.7-0.7,3.5-1.1,5.5-1.1s3.9,0.4,5.6,1.1s3.1,1.7,4.3,3s2.1,2.9,2.8,4.7C239.9,77.2,240.2,79.3,240.2,81.5
		 M233.4,81.5c0-2.8-0.6-5.1-1.8-6.8c-1.2-1.7-2.9-2.5-5.1-2.5s-3.9,0.8-5.1,2.5s-1.8,3.9-1.8,6.8s0.6,5.2,1.8,6.8
		c1.2,1.7,2.9,2.5,5.1,2.5s3.9-0.8,5.1-2.5C232.8,86.7,233.4,84.4,233.4,81.5"/>
	<path class="st0" d="M316.1,85c-0.3-0.9-0.9-1.7-1.6-2.4c-0.7-0.7-1.6-1.4-2.7-1.9c-1.1-0.6-2.4-1.1-4-1.7c-0.9-0.3-1.7-0.7-2.4-1
		c-0.7-0.3-1.2-0.6-1.6-0.9s-0.7-0.6-0.8-1c-0.2-0.4-0.2-0.8-0.2-1.3c0-0.9,0.4-1.6,1.3-2.1c0.8-0.5,1.9-0.7,3.3-0.7
		c1.5,0,2.8,0.1,3.9,0.4s2.1,0.6,2.8,0.9l1.2-5.4c-0.8-0.3-1.9-0.6-3.4-0.9s-3.1-0.5-4.8-0.5c-3.3,0-5.9,0.8-7.9,2.3
		c-1.9,1.5-2.9,3.6-2.9,6.2c0,1.4,0.2,2.5,0.6,3.4s1,1.7,1.7,2.4c0.7,0.7,1.6,1.2,2.6,1.7s2.1,1,3.3,1.4c2,0.7,3.4,1.4,4.2,2
		c0.9,0.6,1.3,1.4,1.3,2.4s-0.4,1.7-1.2,2.2c-0.8,0.4-2.1,0.6-3.8,0.6c-1.7,0-3.3-0.2-4.7-0.5c-1.2-0.3-2.3-0.7-3.2-1l-1.2,5.5
		c0.6,0.2,1.6,0.5,3,0.9c1.5,0.4,3.6,0.6,6.1,0.6c3.8,0,6.6-0.7,8.7-2.1c2-1.4,3-3.5,3-6.2C316.6,87,316.5,85.9,316.1,85"/>
	<path class="st0" d="M288,95.2l1.4-5.9c-1.1,0.5-2.8,0.8-4,1.1c-1.3,0.3-2.8,0.4-4.4,0.4c-2.7,0-4.8-0.6-6.3-1.9
		c-1.4-1.3-2.3-3-2.4-5.3h18.9c0-0.4,0.1-0.8,0.1-1.2c0-0.5,0-0.9,0-1.2c0-4.8-1.1-8.5-3.3-10.9c-2.2-2.4-5.3-3.7-9.2-3.7
		c-1.7,0-3.3,0.3-4.9,1c-1.6,0.6-3,1.6-4.3,2.8c-1.2,1.3-2.2,2.8-3,4.7c-0.7,1.9-1.1,4.1-1.1,6.6c0,2.2,0.3,4.1,0.9,5.9
		s1.5,3.4,2.7,4.7c1.2,1.3,2.7,2.4,4.6,3.1s4,1.1,6.6,1.1c1,0,2-0.1,2.9-0.2s1.8-0.2,2.7-0.4c0.8-0.2,1.6-0.5,2.2-0.7
		C288,95.3,288,95.2,288,95.2 M272.9,76.3c0.3-0.8,0.7-1.5,1.2-2.1s1.2-1.1,1.9-1.5c0.8-0.4,1.7-0.6,2.7-0.6s1.8,0.2,2.5,0.5
		c0.7,0.3,1.3,0.8,1.8,1.4s0.9,1.3,1.1,2.1c0.3,0.8,0.4,1.7,0.4,2.6h-12.3C272.4,77.9,272.6,77.1,272.9,76.3"/>
	<path class="st0" d="M339,89.8c-0.5,0.2-1.1,0.4-1.9,0.6c-0.9,0.3-2,0.4-3.2,0.4c-1.7,0-3-0.5-3.7-1.5c-0.7-1-1.1-2.6-1.1-4.9V72.8
		h10.2v-5.5h-10.2v-8.6l-6.6,1.1v24.8c0,1.9,0.2,3.6,0.5,5.1c0.3,1.5,0.9,2.7,1.7,3.8c0.8,1,1.9,1.8,3.3,2.4
		c1.4,0.5,3.1,0.8,5.1,0.8c1.7,0,3.1-0.2,4.4-0.5c1.1-0.3,2.1-0.6,2.8-0.9L339,89.8z"/>
</g>
</svg>
