<?xml version="1.0" encoding="utf-8"?>
<!-- Generator: Adobe Illustrator 27.9.0, SVG Export Plug-In . SVG Version: 6.00 Build 0)  -->
<svg version="1.1" id="Layer_1" xmlns="http://www.w3.org/2000/svg" xmlns:xlink="http://www.w3.org/1999/xlink" x="0px" y="0px"
	 viewBox="0 0 215.2 48.8" style="enable-background:new 0 0 215.2 48.8;" xml:space="preserve">
<style type="text/css">
	.st0{clip-path:url(#SVGID_00000111182957737921111460000005394049642791752067_);fill:#026937;}
	.st1{clip-path:url(#SVGID_00000181798804377537248540000002331117134679287960_);fill:#014A2A;}
	.st2{clip-path:url(#SVGID_00000100346445386272331220000014602817709893276068_);fill:#026937;}
	.st3{clip-path:url(#SVGID_00000057862826088915548010000005187192423223143552_);fill:#63A70A;}
	.st4{clip-path:url(#SVGID_00000139976053558116165200000007349997418043133067_);fill:#026937;}
	.st5{clip-path:url(#SVGID_00000134218224386929992710000011431392468767771790_);fill:#026937;}
	.st6{clip-path:url(#SVGID_00000169524330858564756470000018339431237570867120_);fill:#026937;}
	.st7{clip-path:url(#SVGID_00000135650748268359735030000014585079289035880112_);fill:#026937;}
	.st8{clip-path:url(#SVGID_00000001660844800421751640000014682254565561034385_);fill:#026937;}
</style>
<g>
	<defs>
		<rect id="SVGID_1_" y="0" width="215" height="48.7"/>
	</defs>
	<clipPath id="SVGID_00000137820897917515327820000000028508861849826692_">
		<use xlink:href="#SVGID_1_"  style="overflow:visible;"/>
	</clipPath>
	<path style="clip-path:url(#SVGID_00000137820897917515327820000000028508861849826692_);fill:#026937;" d="M25.2,38.5l1-2.3
		l5.2-4.2l-0.8-4.2l-1.1-4.3l4.2-8.3H32L39,0l6.7,15.4H44l5.9,12.7h-2.2L52,38.5H41.2v10.2h-5.1V38.5"/>
</g>
<g>
	<defs>
		<rect id="SVGID_00000101080885059095017650000005504832544924285842_" y="0" width="215" height="48.7"/>
	</defs>
	<clipPath id="SVGID_00000111164767334922255170000017926743037310126985_">
		<use xlink:href="#SVGID_00000101080885059095017650000005504832544924285842_"  style="overflow:visible;"/>
	</clipPath>
	<path style="clip-path:url(#SVGID_00000111164767334922255170000017926743037310126985_);fill:#014A2A;" d="M22.8,24.1h0.6
		c3.2,0,5.8,2.6,5.8,5.8s-2.6,5.8-5.8,5.8c-1.6,0-3-0.6-4.1-1.7H15c-0.6,1.3-1.9,2.7-3.3,3.2c-2.2,0.9-4.8,0.2-6.4-1.5
		c-1.6-1.6-1.8-4.1-1.1-6c0.6-1.5,2.2-2.8,3.7-3.3l2-0.2l0.2-1.9c-0.8,0-1.7-0.5-2.1-1.3c-0.4-0.5-0.1-1.3,0.1-1.8
		c0.5-0.7,1.4-1,2.2-0.7c0.1,0.1,0.3,0.3,0.4,0.3l1.5-1.2c-0.3-2.5,0.7-4.6,2.8-5.8c1.3-0.7,3.2-1.1,4.7-0.5
		c1.4,0.4,2.7,1.6,3.4,2.9c0.8,2,0.7,4.4-0.6,6.1L22,22.8L22.8,24.1 M27.3,20.7c0.7-4.1-0.9-8.1-4.4-10.3c-2.6-1.5-6.1-1.7-8.9-0.5
		s-5.1,4.1-5.7,7c-1,0.3-1.8,0.7-2.6,1.4c-1.3,1.4-1.8,3.5-1.4,5.5c-2.9,2-4.3,5.1-4.3,8.4c0.1,3.9,2.7,7.2,6.3,8.7
		C9,42,12.7,41.5,15,40.2c-0.2,2.7-0.9,5.2-2.7,7.2h11.3c-1.9-2.2-3.3-4.8-2.7-7.9c0.6,0.4,1.8,0.5,2.8,0.5c5.4,0,9.7-4.3,9.7-9.7
		c0-4.1-2.6-7.6-6.2-9C27.2,21.3,27.3,20.7,27.3,20.7z"/>
</g>
<g>
	<defs>
		<rect id="SVGID_00000065068461342989662660000008575675440173820806_" y="0" width="215" height="48.7"/>
	</defs>
	<clipPath id="SVGID_00000073691064492146847140000002187416251020298386_">
		<use xlink:href="#SVGID_00000065068461342989662660000008575675440173820806_"  style="overflow:visible;"/>
	</clipPath>
	<path style="clip-path:url(#SVGID_00000073691064492146847140000002187416251020298386_);fill:#026937;" d="M25.2,38.5l1-2.3
		l5.2-4.2l-0.8-4.2l-1.1-4.3l4.2-8.3H32L39,0l6.7,15.4H44l5.9,12.7h-2.2L52,38.5H41.2v10.2h-5.1V38.5"/>
</g>
<g>
	<defs>
		<rect id="SVGID_00000163792374003531056490000002130913001867212970_" y="0" width="215" height="48.7"/>
	</defs>
	<clipPath id="SVGID_00000155856345563196330010000016788519639992699830_">
		<use xlink:href="#SVGID_00000163792374003531056490000002130913001867212970_"  style="overflow:visible;"/>
	</clipPath>
	<path style="clip-path:url(#SVGID_00000155856345563196330010000016788519639992699830_);fill:#63A70A;" d="M22.8,24.1h0.6
		c3.2,0,5.8,2.6,5.8,5.8s-2.6,5.8-5.8,5.8c-1.6,0-3-0.6-4.1-1.7H15c-0.6,1.3-1.9,2.7-3.3,3.2c-2.2,0.9-4.8,0.2-6.4-1.5
		c-1.6-1.6-1.8-4.1-1.1-6c0.6-1.5,2.2-2.8,3.7-3.3l2-0.2l0.2-1.9c-0.8,0-1.7-0.5-2.1-1.3c-0.4-0.5-0.1-1.3,0.1-1.8
		c0.5-0.7,1.4-1,2.2-0.7c0.1,0.1,0.3,0.3,0.4,0.3l1.5-1.2c-0.3-2.5,0.7-4.6,2.8-5.8c1.3-0.7,3.2-1.1,4.7-0.5
		c1.4,0.4,2.7,1.6,3.4,2.9c0.8,2,0.7,4.4-0.6,6.1L22,22.8L22.8,24.1 M27.3,20.7c0.7-4.1-0.9-8.1-4.4-10.3c-2.6-1.5-6.1-1.7-8.9-0.5
		s-5.1,4.1-5.7,7c-1,0.3-1.8,0.7-2.6,1.4c-1.3,1.4-1.8,3.5-1.4,5.5c-2.9,2-4.3,5.1-4.3,8.4c0.1,3.9,2.7,7.2,6.3,8.7
		C9,42,12.7,41.5,15,40.2c-0.2,2.7-0.9,5.2-2.7,7.2h11.3c-1.9-2.2-3.3-4.8-2.7-7.9c0.6,0.4,1.8,0.5,2.8,0.5c5.4,0,9.7-4.3,9.7-9.7
		c0-4.1-2.6-7.6-6.2-9C27.2,21.3,27.3,20.7,27.3,20.7z"/>
</g>
<g>
	<defs>
		<rect id="SVGID_00000072273535169041657390000006762500184773978754_" y="0" width="215" height="48.7"/>
	</defs>
	<clipPath id="SVGID_00000028297871540965934530000010209686902703208112_">
		<use xlink:href="#SVGID_00000072273535169041657390000006762500184773978754_"  style="overflow:visible;"/>
	</clipPath>
	<path style="clip-path:url(#SVGID_00000028297871540965934530000010209686902703208112_);fill:#026937;" d="M57.6,21.8
		c0-0.9,0.6-1.8,1.8-1.8h5.9c1,0,1.5,0.8,1.5,1.6s-0.5,1.6-1.5,1.6H61v3.3h3.6c1.1,0,1.7,0.8,1.7,1.6s-0.6,1.6-1.7,1.6H61v5
		c0,1.1-0.7,1.8-1.7,1.8s-1.7-0.6-1.7-1.8"/>
</g>
<g>
	<defs>
		<rect id="SVGID_00000111890302304646209420000014133693215318608266_" y="0" width="215" height="48.7"/>
	</defs>
	<clipPath id="SVGID_00000115510731193951558880000005750004886210460846_">
		<use xlink:href="#SVGID_00000111890302304646209420000014133693215318608266_"  style="overflow:visible;"/>
	</clipPath>
	<path style="clip-path:url(#SVGID_00000115510731193951558880000005750004886210460846_);fill:#026937;" d="M79.3,30.3
		c0,3.4-2.4,6.4-5.9,6.4c-3.6,0-5.9-2.9-5.9-6.4c0-3.4,2.4-6.4,5.9-6.4C76.8,23.9,79.3,26.9,79.3,30.3 M70.7,30.3
		c0,1.6,0.8,3.3,2.6,3.3s2.6-1.7,2.6-3.3c0-1.6-0.8-3.4-2.6-3.4S70.7,28.7,70.7,30.3z M80.8,25.7c0-1.1,0.9-1.7,1.7-1.7
		c0.9,0,1.6,0.3,1.6,1.4c0.6-0.9,1.3-1.4,2.3-1.4c0.8,0,1.6,0.6,1.6,1.8c0,1.1-1,1.1-2,1.6s-2,0.9-2,2.2v5.1c0,1.1-0.7,1.8-1.7,1.8
		s-1.7-0.7-1.7-1.8"/>
</g>
<g>
	<defs>
		<rect id="SVGID_00000159428385676979273820000006962870303188689801_" y="0" width="215" height="48.7"/>
	</defs>
	<clipPath id="SVGID_00000075125621193442018130000014855815633218643374_">
		<use xlink:href="#SVGID_00000159428385676979273820000006962870303188689801_"  style="overflow:visible;"/>
	</clipPath>
	<path style="clip-path:url(#SVGID_00000075125621193442018130000014855815633218643374_);fill:#026937;" d="M91,31.4
		c0.2,1.6,1.6,2.4,3.1,2.4c1.7,0,2.9-1.3,3.7-1.3c0.7,0,1.4,0.7,1.4,1.4c0,1.4-2.9,2.8-5.4,2.8c-3.7,0-6.2-2.7-6.2-6.4
		c0-3.4,2.4-6.4,5.9-6.4c3.6,0,5.9,3.3,5.9,6c0,1-0.4,1.5-1.4,1.5 M96.2,29.2c-0.2-1.4-1.1-2.5-2.6-2.5s-2.5,1.1-2.6,2.5H96.2z
		 M107.9,27.7c-0.6,0-1.9-1-3-1c-0.6,0-1.1,0.3-1.1,0.9c0,1.5,5.7,1.3,5.7,5.1c0,2.2-1.9,3.9-4.7,3.9c-1.9,0-4.6-1.1-4.6-2.5
		c0-0.5,0.5-1.5,1.4-1.5c1.3,0,1.9,1.1,3.4,1.1c1,0,1.3-0.3,1.3-0.9c0-1.5-5.7-1.3-5.7-5.1c0-2.3,1.9-3.9,4.5-3.9
		c1.6,0,4.1,0.8,4.1,2.4C109.2,27,108.6,27.7,107.9,27.7 M111.7,27.1H111c-0.9,0-1.4-0.6-1.4-1.4s0.6-1.4,1.4-1.4h0.7v-2
		c0-1.1,0.7-1.8,1.7-1.8s1.7,0.7,1.7,1.8v2h0.9c0.8,0,1.6,0.4,1.6,1.4s-0.7,1.4-1.6,1.4h-1v7.6c0,1.1-0.7,1.8-1.7,1.8
		s-1.7-0.7-1.7-1.8"/>
</g>
<g>
	<defs>
		<rect id="SVGID_00000083074425574756908290000008445215148655721647_" y="0" width="215" height="48.7"/>
	</defs>
	<clipPath id="SVGID_00000114045456144182025990000004955342860875992721_">
		<use xlink:href="#SVGID_00000083074425574756908290000008445215148655721647_"  style="overflow:visible;"/>
	</clipPath>
	<path style="clip-path:url(#SVGID_00000114045456144182025990000004955342860875992721_);fill:#026937;" d="M124.4,21.8
		c0-1.1,0.6-1.8,1.8-1.8h4c3.5,0,5.7,1.6,5.7,5.2c0,2.5-1.9,4-4.2,4.3l3.9,4.2c0.3,0.3,0.5,0.7,0.5,1c0,0.9-0.7,1.8-1.7,1.8
		c-0.4,0-1-0.2-1.3-0.6l-5.1-6.2v5c0,1.1-0.7,1.8-1.7,1.8s-1.7-0.6-1.7-1.8 M127.8,27.3h2.4c1.3,0,2.1-0.8,2.1-2c0-1.3-0.9-2-2.1-2
		h-2.4C127.8,23.3,127.8,27.3,127.8,27.3z M140,31.4c0.2,1.6,1.6,2.4,3.1,2.4c1.7,0,2.9-1.3,3.7-1.3c0.7,0,1.4,0.7,1.4,1.4
		c0,1.4-2.9,2.8-5.4,2.8c-3.7,0-6.2-2.7-6.2-6.4c0-3.4,2.4-6.4,5.9-6.4c3.6,0,5.9,3.3,5.9,6c0,1-0.4,1.5-1.4,1.5 M145.1,29.2
		c-0.2-1.4-1.1-2.5-2.6-2.5s-2.5,1.1-2.6,2.5H145.1L145.1,29.2z M156.8,27.7c-0.6,0-1.9-1-3-1c-0.6,0-1.1,0.3-1.1,0.9
		c0,1.5,5.7,1.3,5.7,5.1c0,2.2-1.9,3.9-4.7,3.9c-1.9,0-4.6-1.1-4.6-2.5c0-0.5,0.5-1.5,1.4-1.5c1.3,0,1.9,1.1,3.4,1.1
		c1,0,1.3-0.3,1.3-0.9c0-1.5-5.7-1.3-5.7-5.1c0-2.3,1.9-3.9,4.5-3.9c1.6,0,4.1,0.8,4.1,2.4C158.2,27,157.6,27.7,156.8,27.7"/>
</g>
<g>
	<defs>
		<rect id="SVGID_00000039812254696375955940000013439645909167935650_" y="0" width="215" height="48.7"/>
	</defs>
	<clipPath id="SVGID_00000155867771500478372840000008300780833250851772_">
		<use xlink:href="#SVGID_00000039812254696375955940000013439645909167935650_"  style="overflow:visible;"/>
	</clipPath>
	<path style="clip-path:url(#SVGID_00000155867771500478372840000008300780833250851772_);fill:#026937;" d="M162.5,31.4
		c0.2,1.6,1.6,2.4,3.1,2.4c1.7,0,2.9-1.3,3.7-1.3c0.7,0,1.4,0.7,1.4,1.4c0,1.4-2.9,2.8-5.4,2.8c-3.7,0-6.2-2.7-6.2-6.4
		c0-3.4,2.4-6.4,5.9-6.4c3.6,0,5.9,3.3,5.9,6c0,1-0.4,1.5-1.4,1.5 M167.7,29.2c-0.2-1.4-1.1-2.5-2.6-2.5s-2.5,1.1-2.6,2.5H167.7
		L167.7,29.2z M183.7,34.3c0,0.8,0,2.2-1.6,2.2c-1,0-1.4-0.5-1.6-1.4c-0.8,1-1.9,1.5-3.1,1.5c-3.1,0-5.5-2.6-5.5-6.4
		c0-3.6,2.4-6.4,5.5-6.4c1.2,0,2.4,0.5,3.1,1.5c0.1-0.8,0.8-1.4,1.6-1.4c1.6,0,1.6,1.3,1.6,2.2 M177.8,33.6c1.7,0,2.5-1.7,2.5-3.3
		c0-1.6-0.8-3.4-2.5-3.4c-1.8,0-2.6,1.8-2.6,3.4S176.1,33.6,177.8,33.6z M185.8,25.7c0-1.1,0.9-1.7,1.7-1.7c0.9,0,1.6,0.3,1.6,1.4
		c0.6-0.9,1.3-1.4,2.3-1.4c0.8,0,1.6,0.6,1.6,1.8c0,1.1-1,1.1-2,1.6s-2,0.9-2,2.2v5.1c0,1.1-0.7,1.8-1.7,1.8s-1.7-0.7-1.7-1.8
		 M201.5,27.6c-0.8,0-1.6-0.6-2.6-0.6c-1.9,0-2.8,1.7-2.8,3.4c0,1.6,1,3.3,2.8,3.3c0.8,0,2.1-0.7,2.5-0.7c0.8,0,1.4,0.7,1.4,1.4
		c0,1.7-2.8,2.3-4,2.3c-3.6,0-5.9-2.9-5.9-6.4c0-3.4,2.4-6.4,5.9-6.4c1.3,0,4,0.5,4,2.1C202.7,26.7,202.3,27.6,201.5,27.6
		 M204.1,20.5c0-1.1,0.7-1.8,1.7-1.8s1.7,0.7,1.7,1.8V25c0.7-0.8,2-1.1,3-1.1c2.6,0,4.5,1.7,4.5,4.5v6.3c0,1.1-0.7,1.8-1.7,1.8
		s-1.7-0.7-1.7-1.8v-5.8c0-1.5-1-2.3-2.2-2.3c-1.4,0-2.1,1-2.1,2.3v5.8c0,1.1-0.7,1.8-1.7,1.8s-1.7-0.7-1.7-1.8"/>
</g>
</svg>
