<?xml version="1.0" encoding="utf-8"?>
<!-- Generator: Adobe Illustrator 26.0.3, SVG Export Plug-In . SVG Version: 6.00 Build 0)  -->
<svg version="1.1" id="Layer_1" xmlns="http://www.w3.org/2000/svg" xmlns:xlink="http://www.w3.org/1999/xlink" x="0px" y="0px"
	 viewBox="0 0 20 9" style="enable-background:new 0 0 20 9;" xml:space="preserve">
<style type="text/css">
	.st0{fill:#8BBF4B;}
	.st1{fill:#1D1D1B;}
</style>
<g>
	<g>
		<path class="st0" d="M1.13,3.27c0.41,0.13,0.86,0.26,0.86,0.8c0,0.52-0.47,0.76-0.94,0.76c-0.38,0-0.8-0.19-1.04-0.57l0.43-0.34
			c0.15,0.28,0.4,0.45,0.62,0.45c0.17,0,0.33-0.1,0.33-0.31c0-0.19-0.23-0.26-0.43-0.33C0.57,3.63,0.13,3.46,0.13,3
			c0-0.63,0.6-0.74,0.86-0.74c0.35,0,0.66,0.14,0.87,0.35L1.49,2.98C1.35,2.82,1.16,2.72,1,2.72C0.91,2.72,0.74,2.76,0.74,3
			C0.74,3.15,0.93,3.21,1.13,3.27z"/>
		<path class="st0" d="M3.45,2.27c0.98,0,1.06,0.92,1.06,1.1v0.24H2.93c0,0.45,0.19,0.76,0.53,0.76c0.1,0,0.32,0.01,0.7-0.48
			l0.37,0.35c-0.5,0.61-0.87,0.59-1.07,0.59c-0.75,0-1.13-0.58-1.13-1.26C2.34,2.86,2.77,2.27,3.45,2.27z M3.01,3.14h0.87
			C3.83,2.95,3.71,2.73,3.45,2.73C3.24,2.73,3.1,2.89,3.01,3.14z"/>
		<path class="st0" d="M5.07,4.78V2.32h0.61v0.31c0.25-0.18,0.56-0.36,0.88-0.36c0.47,0,0.65,0.3,0.65,0.79v1.72h-0.6V3.06
			c0-0.67-0.75,0.03-0.94,0.2v1.52H5.07z"/>
		<path class="st0" d="M8.74,3.27C9.15,3.4,9.6,3.53,9.6,4.07c0,0.52-0.47,0.76-0.94,0.76c-0.38,0-0.8-0.19-1.04-0.57l0.43-0.34
			c0.15,0.28,0.4,0.45,0.62,0.45C8.83,4.38,9,4.28,9,4.07c0-0.19-0.23-0.26-0.43-0.33C8.18,3.63,7.75,3.46,7.75,3
			c0-0.63,0.6-0.74,0.86-0.74c0.35,0,0.66,0.14,0.87,0.35L9.1,2.98C8.96,2.82,8.77,2.72,8.61,2.72C8.52,2.72,8.35,2.76,8.35,3
			C8.35,3.15,8.55,3.21,8.74,3.27z"/>
		<path class="st0" d="M10.69,2.32v2.47h-0.6V2.32H10.69z"/>
		<path class="st0" d="M11.31,4.78V2.32h0.61v0.31c0.25-0.18,0.56-0.36,0.88-0.36c0.47,0,0.65,0.3,0.65,0.79v1.72h-0.6V3.06
			c0-0.67-0.75,0.03-0.94,0.2v1.52H11.31z"/>
		<path class="st0" d="M14.34,3.76c-0.17-0.14-0.32-0.36-0.32-0.69c0-0.58,0.65-0.82,1.04-0.82c0.07,0,0.15,0.01,0.24,0.03
			c0.19-0.15,0.43-0.24,0.68-0.24c0.1,0,0.24,0.03,0.39,0.08l-0.09,0.46c-0.13-0.04-0.24-0.07-0.3-0.07c-0.04,0-0.09,0.01-0.14,0.02
			c0.14,0.13,0.26,0.32,0.26,0.54c0,0.74-0.64,0.88-1.03,0.88c-0.07,0-0.14,0-0.21-0.01c-0.09,0.07-0.16,0.15-0.16,0.22
			c0.02-0.02,0.17-0.03,0.29-0.03c0.03,0,0.08,0,0.09,0c0.61,0.03,1.31,0.15,1.31,0.77c0,0.55-0.41,1.02-1.3,1.02
			c-0.6,0-1.13-0.38-1.13-0.82c0-0.36,0.1-0.49,0.31-0.64c-0.11-0.07-0.17-0.15-0.17-0.28C14.08,4.05,14.19,3.9,14.34,3.76z
			 M15.78,4.91c0-0.23-0.4-0.28-0.73-0.3c-0.17,0-0.18,0-0.25,0c-0.15,0.09-0.26,0.19-0.26,0.5c0,0.2,0.28,0.35,0.54,0.35
			C15.56,5.47,15.78,5.21,15.78,4.91z M15.06,3.53c0.17,0,0.43-0.08,0.43-0.45c0-0.28-0.27-0.39-0.43-0.39
			c-0.16,0-0.43,0.11-0.43,0.39C14.62,3.48,14.9,3.53,15.06,3.53z"/>
		<path class="st1" d="M10.55,2.09c0.09,0.05,0.19,0.08,0.3,0.08c0.33,0,0.59-0.26,0.59-0.59c0-0.03,0-0.06-0.01-0.1
			c0.07-0.12,0.11-0.26,0.11-0.4c0-0.34-0.22-0.65-0.55-0.75c-0.14-0.29-0.49-0.41-0.79-0.27c-0.12,0.06-0.21,0.15-0.27,0.27
			C9.5,0.46,9.27,0.9,9.4,1.32c0.02,0.06,0.04,0.11,0.07,0.16c-0.01,0.03-0.01,0.06-0.01,0.1c0,0.33,0.26,0.59,0.59,0.59
			c0.1,0,0.21-0.03,0.3-0.08"/>
	</g>
	<g>
		<path class="st0" d="M8.33,6.44c0.57,0,1.13,0.35,1.13,1.28C9.45,8.66,8.89,9,8.33,9C7.76,9,7.2,8.69,7.2,7.72
			C7.2,6.78,7.76,6.44,8.33,6.44z M8.33,6.88C8.07,6.88,7.8,7.1,7.8,7.72c0,0.61,0.26,0.84,0.52,0.84c0.26,0,0.52-0.22,0.52-0.84
			C8.85,7.13,8.58,6.88,8.33,6.88z"/>
		<path class="st0" d="M10.54,6.48v0.24c0.04-0.09,0.26-0.29,0.49-0.29c0.43,0,0.7,0.31,0.7,0.31l-0.4,0.39c0,0-0.16-0.21-0.28-0.21
			c-0.19,0-0.36,0.27-0.47,0.5v1.52H9.97V6.48H10.54z"/>
		<path class="st0" d="M12.92,6.44c0.98,0,1.06,0.92,1.06,1.1v0.24H12.4c0,0.45,0.19,0.76,0.53,0.76c0.1,0,0.32,0.01,0.7-0.48
			l0.37,0.35C13.51,9.02,13.13,9,12.93,9c-0.75,0-1.13-0.58-1.13-1.26C11.8,7.03,12.24,6.44,12.92,6.44z M12.48,7.31h0.87
			C13.3,7.12,13.18,6.9,12.92,6.9C12.7,6.9,12.57,7.06,12.48,7.31z"/>
		<path class="st0" d="M15.48,7.44c0.41,0.13,0.86,0.26,0.86,0.8c0,0.52-0.47,0.76-0.94,0.76c-0.38,0-0.8-0.19-1.04-0.56l0.43-0.34
			c0.15,0.28,0.4,0.45,0.62,0.45c0.17,0,0.33-0.1,0.33-0.31c0-0.19-0.23-0.26-0.43-0.33c-0.38-0.11-0.82-0.28-0.82-0.74
			c0-0.63,0.6-0.74,0.86-0.74c0.35,0,0.66,0.14,0.87,0.35l-0.38,0.36c-0.14-0.16-0.33-0.26-0.49-0.26c-0.09,0-0.26,0.04-0.26,0.28
			C15.09,7.32,15.28,7.38,15.48,7.44z"/>
		<path class="st1" d="M17.78,8.52c-0.1-0.03-0.09-0.19-0.09-0.31V6.94h0.71c0.08,0,0.13-0.09,0.08-0.16l-0.69-0.97h0.35
			c0.08,0,0.13-0.09,0.08-0.16l-0.64-0.89L17.5,4.61c-0.04-0.06-0.13-0.06-0.17,0l-0.09,0.14L16.6,5.64c-0.05,0.07,0,0.16,0.08,0.16
			h0.35l-0.69,0.97c-0.05,0.07,0,0.16,0.08,0.16h0.65V8.2c0,0.48,0.16,0.8,0.6,0.8c0.31,0,0.56-0.09,0.8-0.35l-0.36-0.35
			C17.98,8.45,17.86,8.54,17.78,8.52z"/>
		<g>
			<path class="st0" d="M6.26,6.49h0.68v0.45H6.26v2.01h-0.6V6.94h-0.3V6.49h0.3v-0.4c0-0.48,0.2-0.83,0.78-0.83
				c0.39,0,0.88,0.34,0.88,0.34L6.97,5.94c0,0-0.37-0.23-0.54-0.23c-0.17,0-0.17,0.17-0.17,0.38V6.49z"/>
		</g>
	</g>
	<g>
		<path class="st1" d="M0.6,6.56h0.19V6h0.38v0.56h0.35v0.28H1.17v0.8c0,0.08,0,0.18,0.06,0.2C1.28,7.86,1.36,7.8,1.44,7.71
			l0.23,0.22c-0.15,0.16-0.31,0.22-0.5,0.22c-0.28,0-0.38-0.2-0.38-0.5v-0.8H0.6V6.56z"/>
		<path class="st1" d="M1.85,8.12V5.8h0.38v0.94c0.16-0.12,0.35-0.21,0.56-0.21c0.29,0,0.41,0.19,0.41,0.5v1.08H2.82V7.03
			c0-0.41-0.49,0.03-0.59,0.13v0.96H1.85z"/>
		<path class="st1" d="M4.19,6.53c0.61,0,0.67,0.58,0.67,0.69v0.15H3.87c0,0.28,0.12,0.48,0.34,0.48c0.06,0,0.2,0.01,0.44-0.3
			l0.23,0.22C4.56,8.16,4.33,8.15,4.2,8.15c-0.47,0-0.71-0.37-0.71-0.79C3.49,6.91,3.76,6.53,4.19,6.53z M3.91,7.08h0.55
			C4.43,6.96,4.35,6.82,4.19,6.82C4.06,6.82,3.97,6.93,3.91,7.08z"/>
	</g>
</g>
</svg>
